solid OpenSCAD_Model
  facet normal -0.951056 0 0.309018
    outer loop
      vertex 88.0451 7 4.06107
      vertex 89 172 7
      vertex 88.0451 172 4.06107
    endloop
  endfacet
  facet normal -0.951056 0 0.309018
    outer loop
      vertex 89 172 7
      vertex 88.0451 7 4.06107
      vertex 89 7 7
    endloop
  endfacet
  facet normal 0 -0.607062 0.794654
    outer loop
      vertex 85.25 175.847 4.06107
      vertex 6.52254 173.469 2.24472
      vertex 84.4775 173.469 2.24472
    endloop
  endfacet
  facet normal 0 -0.607062 0.794654
    outer loop
      vertex 6.52254 173.469 2.24472
      vertex 85.25 175.847 4.06107
      vertex 5.75 175.847 4.06107
    endloop
  endfacet
  facet normal 0.561583 0.772953 -0.295242
    outer loop
      vertex 5.75 3.1529 150.939
      vertex 5.45492 2.24472 148
      vertex 2.95492 4.06107 148
    endloop
  endfacet
  facet normal -0.561584 -0.772953 0.29524
    outer loop
      vertex 88.0451 174.939 7
      vertex 85.5451 176.755 7
      vertex 85.25 175.847 4.06107
    endloop
  endfacet
  facet normal 0.561584 -0.772953 -0.295241
    outer loop
      vertex 5.45492 176.755 148
      vertex 5.75 175.847 150.939
      vertex 3.72746 174.378 150.939
    endloop
  endfacet
  facet normal 0.577353 0.187593 -0.794653
    outer loop
      vertex 3.72746 4.62236 150.939
      vertex 4.58774 6.46946 152
      vertex 4.90898 5.48079 152
    endloop
  endfacet
  facet normal 0.577353 0.187593 -0.794653
    outer loop
      vertex 4.58774 6.46946 152
      vertex 3.72746 4.62236 150.939
      vertex 2.95492 7 150.939
    endloop
  endfacet
  facet normal 0.561583 0.772953 -0.295243
    outer loop
      vertex 3.72746 4.62236 150.939
      vertex 5.75 3.1529 150.939
      vertex 2.95492 4.06107 148
    endloop
  endfacet
  facet normal 0.561583 0.772953 0.295242
    outer loop
      vertex 5.45492 2.24472 7
      vertex 5.75 3.1529 4.06107
      vertex 2.95492 4.06107 7
    endloop
  endfacet
  facet normal 0 -0.607065 -0.794652
    outer loop
      vertex 6.2013 174.458 152
      vertex 85.25 175.847 150.939
      vertex 84.7987 174.458 152
    endloop
  endfacet
  facet normal -0 -0.607065 -0.794652
    outer loop
      vertex 85.25 175.847 150.939
      vertex 6.2013 174.458 152
      vertex 5.75 175.847 150.939
    endloop
  endfacet
  facet normal 0.561584 -0.772953 -0.295241
    outer loop
      vertex 5.45492 176.755 148
      vertex 3.72746 174.378 150.939
      vertex 2.95492 174.939 148
    endloop
  endfacet
  facet normal -0.356823 0.491125 -0.794653
    outer loop
      vertex 86.091 5.48079 152
      vertex 87.2725 4.62236 150.939
      vertex 85.6397 5.1529 152
    endloop
  endfacet
  facet normal -0 0.607062 0.794654
    outer loop
      vertex 6.52254 5.53054 2.24472
      vertex 85.25 3.1529 4.06107
      vertex 84.4775 5.53054 2.24472
    endloop
  endfacet
  facet normal 0 0.607062 0.794654
    outer loop
      vertex 85.25 3.1529 4.06107
      vertex 6.52254 5.53054 2.24472
      vertex 5.75 3.1529 4.06107
    endloop
  endfacet
  facet normal 0.356827 -0.491122 0.794653
    outer loop
      vertex 6.52254 173.469 2.24472
      vertex 5.75 175.847 4.06107
      vertex 5.75 172.908 2.24472
    endloop
  endfacet
  facet normal 1 -0 0
    outer loop
      vertex 2 7 148
      vertex 2 172 7
      vertex 2 172 148
    endloop
  endfacet
  facet normal 1 0 0
    outer loop
      vertex 2 172 7
      vertex 2 7 148
      vertex 2 7 7
    endloop
  endfacet
  facet normal 0 -1 0
    outer loop
      vertex 5.45492 176.755 7
      vertex 85.5451 176.755 148
      vertex 5.45492 176.755 148
    endloop
  endfacet
  facet normal 0 -1 -0
    outer loop
      vertex 85.5451 176.755 148
      vertex 5.45492 176.755 7
      vertex 85.5451 176.755 7
    endloop
  endfacet
  facet normal 0 -0.955423 0.29524
    outer loop
      vertex 5.75 175.847 4.06107
      vertex 85.5451 176.755 7
      vertex 5.45492 176.755 7
    endloop
  endfacet
  facet normal 0 -0.955423 0.29524
    outer loop
      vertex 85.5451 176.755 7
      vertex 5.75 175.847 4.06107
      vertex 85.25 175.847 4.06107
    endloop
  endfacet
  facet normal 0.908661 -0.295242 0.295242
    outer loop
      vertex 2.95492 172 4.06107
      vertex 2.95492 174.939 7
      vertex 2 172 7
    endloop
  endfacet
  facet normal 0.356827 -0.491121 -0.794654
    outer loop
      vertex 5.36028 173.847 152
      vertex 4.90898 173.519 152
      vertex 3.72746 174.378 150.939
    endloop
  endfacet
  facet normal 0.356825 -0.491126 -0.794652
    outer loop
      vertex 5.36028 173.847 152
      vertex 5.75 175.847 150.939
      vertex 6.2013 174.458 152
    endloop
  endfacet
  facet normal 0.356825 -0.491126 -0.794652
    outer loop
      vertex 5.75 175.847 150.939
      vertex 5.36028 173.847 152
      vertex 3.72746 174.378 150.939
    endloop
  endfacet
  facet normal 0 -0.955423 -0.295241
    outer loop
      vertex 5.45492 176.755 148
      vertex 85.25 175.847 150.939
      vertex 5.75 175.847 150.939
    endloop
  endfacet
  facet normal 0 -0.955423 -0.295241
    outer loop
      vertex 85.25 175.847 150.939
      vertex 5.45492 176.755 148
      vertex 85.5451 176.755 148
    endloop
  endfacet
  facet normal -0.356823 0.491125 -0.794653
    outer loop
      vertex 85.25 3.1529 150.939
      vertex 85.6397 5.1529 152
      vertex 87.2725 4.62236 150.939
    endloop
  endfacet
  facet normal -0.356824 0.491125 -0.794653
    outer loop
      vertex 85.6397 5.1529 152
      vertex 85.25 3.1529 150.939
      vertex 84.7987 4.54186 152
    endloop
  endfacet
  facet normal 0.356824 0.491125 -0.794653
    outer loop
      vertex 3.72746 4.62236 150.939
      vertex 5.75 4.86975 152
      vertex 5.75 3.1529 150.939
    endloop
  endfacet
  facet normal 0.356824 0.491125 -0.794653
    outer loop
      vertex 5.75 4.86975 152
      vertex 3.72746 4.62236 150.939
      vertex 4.90898 5.48079 152
    endloop
  endfacet
  facet normal -0.908662 0.29524 0.29524
    outer loop
      vertex 88.0451 4.06107 7
      vertex 88.0451 7 4.06107
      vertex 87.2725 4.62236 4.06107
    endloop
  endfacet
  facet normal 0 0.955423 0.295242
    outer loop
      vertex 85.25 3.1529 4.06107
      vertex 5.45492 2.24472 7
      vertex 85.5451 2.24472 7
    endloop
  endfacet
  facet normal 0 0.955423 0.295242
    outer loop
      vertex 5.45492 2.24472 7
      vertex 85.25 3.1529 4.06107
      vertex 5.75 3.1529 4.06107
    endloop
  endfacet
  facet normal -0.587785 0.809017 0
    outer loop
      vertex 88.0451 4.06107 7
      vertex 85.5451 2.24472 148
      vertex 88.0451 4.06107 148
    endloop
  endfacet
  facet normal -0.587785 0.809017 0
    outer loop
      vertex 85.5451 2.24472 148
      vertex 88.0451 4.06107 7
      vertex 85.5451 2.24472 7
    endloop
  endfacet
  facet normal -0.577353 -0.187592 -0.794652
    outer loop
      vertex 86.4123 172.531 152
      vertex 87.2725 174.378 150.939
      vertex 88.0451 172 150.939
    endloop
  endfacet
  facet normal -0.577351 -0.187594 -0.794653
    outer loop
      vertex 87.2725 174.378 150.939
      vertex 86.4123 172.531 152
      vertex 86.091 173.519 152
    endloop
  endfacet
  facet normal -0.90866 -0.295243 -0.295243
    outer loop
      vertex 88.0451 174.939 148
      vertex 89 172 148
      vertex 88.0451 172 150.939
    endloop
  endfacet
  facet normal 0.356822 -0.491123 0.794655
    outer loop
      vertex 5.75 172.908 2.24472
      vertex 5.75 175.847 4.06107
      vertex 3.72746 174.378 4.06107
    endloop
  endfacet
  facet normal 0.57735 -0.187594 0.794654
    outer loop
      vertex 5.45492 172 2.24472
      vertex 5.75 172.908 2.24472
      vertex 2.95492 172 4.06107
    endloop
  endfacet
  facet normal 0.908661 0.295242 0.295242
    outer loop
      vertex 3.72746 4.62236 4.06107
      vertex 2.95492 7 4.06107
      vertex 2.95492 4.06107 7
    endloop
  endfacet
  facet normal 0.587785 0 0.809017
    outer loop
      vertex 2.95492 172 4.06107
      vertex 5.45492 7 2.24472
      vertex 5.45492 172 2.24472
    endloop
  endfacet
  facet normal 0.587785 0 0.809017
    outer loop
      vertex 5.45492 7 2.24472
      vertex 2.95492 172 4.06107
      vertex 2.95492 7 4.06107
    endloop
  endfacet
  facet normal 0.951056 0 -0.309018
    outer loop
      vertex 2.95492 7 150.939
      vertex 2 172 148
      vertex 2.95492 172 150.939
    endloop
  endfacet
  facet normal 0.951056 0 -0.309018
    outer loop
      vertex 2 172 148
      vertex 2.95492 7 150.939
      vertex 2 7 148
    endloop
  endfacet
  facet normal 0.908661 -0.295242 -0.295242
    outer loop
      vertex 2.95492 174.939 148
      vertex 3.72746 174.378 150.939
      vertex 2.95492 172 150.939
    endloop
  endfacet
  facet normal -0.561584 0.772953 0.295241
    outer loop
      vertex 88.0451 4.06107 7
      vertex 87.2725 4.62236 4.06107
      vertex 85.5451 2.24472 7
    endloop
  endfacet
  facet normal -0.561583 0.772953 -0.295242
    outer loop
      vertex 87.2725 4.62236 150.939
      vertex 85.5451 2.24472 148
      vertex 85.25 3.1529 150.939
    endloop
  endfacet
  facet normal -0.561583 0.772953 -0.295242
    outer loop
      vertex 87.2725 4.62236 150.939
      vertex 88.0451 4.06107 148
      vertex 85.5451 2.24472 148
    endloop
  endfacet
  facet normal 0 0.607064 -0.794653
    outer loop
      vertex 85.25 3.1529 150.939
      vertex 6.2013 4.54186 152
      vertex 84.7987 4.54186 152
    endloop
  endfacet
  facet normal 0 0.607064 -0.794653
    outer loop
      vertex 6.2013 4.54186 152
      vertex 85.25 3.1529 150.939
      vertex 5.75 3.1529 150.939
    endloop
  endfacet
  facet normal 0.577351 -0.187595 -0.794653
    outer loop
      vertex 4.90898 173.519 152
      vertex 4.7366 172.989 152
      vertex 3.72746 174.378 150.939
    endloop
  endfacet
  facet normal -0.561584 -0.772953 0.29524
    outer loop
      vertex 87.2725 174.378 4.06107
      vertex 88.0451 174.939 7
      vertex 85.25 175.847 4.06107
    endloop
  endfacet
  facet normal -0.90866 -0.295243 0.295243
    outer loop
      vertex 89 172 7
      vertex 88.0451 174.939 7
      vertex 88.0451 172 4.06107
    endloop
  endfacet
  facet normal -0.356822 0.491124 0.794655
    outer loop
      vertex 87.2725 4.62236 4.06107
      vertex 85.25 6.09182 2.24472
      vertex 85.25 3.1529 4.06107
    endloop
  endfacet
  facet normal -0.577351 0.187591 0.794655
    outer loop
      vertex 87.2725 4.62236 4.06107
      vertex 88.0451 7 4.06107
      vertex 85.25 6.09182 2.24472
    endloop
  endfacet
  facet normal 0.587785 0.809017 -0
    outer loop
      vertex 5.45492 2.24472 7
      vertex 2.95492 4.06107 148
      vertex 5.45492 2.24472 148
    endloop
  endfacet
  facet normal 0.587785 0.809017 0
    outer loop
      vertex 2.95492 4.06107 148
      vertex 5.45492 2.24472 7
      vertex 2.95492 4.06107 7
    endloop
  endfacet
  facet normal -0.577354 0.18759 -0.794653
    outer loop
      vertex 86.2634 6.01132 152
      vertex 87.2725 4.62236 150.939
      vertex 86.091 5.48079 152
    endloop
  endfacet
  facet normal -0.356824 -0.491124 -0.794653
    outer loop
      vertex 85.25 174.13 152
      vertex 87.2725 174.378 150.939
      vertex 86.091 173.519 152
    endloop
  endfacet
  facet normal -0.356824 -0.491125 -0.794653
    outer loop
      vertex 87.2725 174.378 150.939
      vertex 85.25 174.13 152
      vertex 85.25 175.847 150.939
    endloop
  endfacet
  facet normal -0.587786 -0.809016 0
    outer loop
      vertex 85.5451 176.755 7
      vertex 88.0451 174.939 148
      vertex 85.5451 176.755 148
    endloop
  endfacet
  facet normal -0.587786 -0.809016 -0
    outer loop
      vertex 88.0451 174.939 148
      vertex 85.5451 176.755 7
      vertex 88.0451 174.939 7
    endloop
  endfacet
  facet normal -0.561584 -0.772953 -0.295241
    outer loop
      vertex 85.5451 176.755 148
      vertex 88.0451 174.939 148
      vertex 85.25 175.847 150.939
    endloop
  endfacet
  facet normal 0.908661 -0.295242 0.295242
    outer loop
      vertex 3.72746 174.378 4.06107
      vertex 2.95492 174.939 7
      vertex 2.95492 172 4.06107
    endloop
  endfacet
  facet normal 0.57735 -0.187593 0.794655
    outer loop
      vertex 5.75 172.908 2.24472
      vertex 3.72746 174.378 4.06107
      vertex 2.95492 172 4.06107
    endloop
  endfacet
  facet normal 0.951056 -0 0.309017
    outer loop
      vertex 2 7 7
      vertex 2.95492 172 4.06107
      vertex 2 172 7
    endloop
  endfacet
  facet normal 0.951056 0 0.309017
    outer loop
      vertex 2.95492 172 4.06107
      vertex 2 7 7
      vertex 2.95492 7 4.06107
    endloop
  endfacet
  facet normal 0.561583 0.772953 0.295242
    outer loop
      vertex 5.75 3.1529 4.06107
      vertex 3.72746 4.62236 4.06107
      vertex 2.95492 4.06107 7
    endloop
  endfacet
  facet normal 0.356822 0.491123 0.794654
    outer loop
      vertex 5.75 3.1529 4.06107
      vertex 5.75 6.09182 2.24472
      vertex 3.72746 4.62236 4.06107
    endloop
  endfacet
  facet normal 0.90866 -0.295242 -0.295242
    outer loop
      vertex 2.95492 174.939 148
      vertex 2.95492 172 150.939
      vertex 2 172 148
    endloop
  endfacet
  facet normal 0.577353 -0.187593 -0.794653
    outer loop
      vertex 2.95492 172 150.939
      vertex 4.7366 172.989 152
      vertex 4.41536 172 152
    endloop
  endfacet
  facet normal 0.577353 -0.187594 -0.794652
    outer loop
      vertex 4.7366 172.989 152
      vertex 2.95492 172 150.939
      vertex 3.72746 174.378 150.939
    endloop
  endfacet
  facet normal 0 1 -0
    outer loop
      vertex 85.5451 2.24472 7
      vertex 5.45492 2.24472 148
      vertex 85.5451 2.24472 148
    endloop
  endfacet
  facet normal 0 1 0
    outer loop
      vertex 5.45492 2.24472 148
      vertex 85.5451 2.24472 7
      vertex 5.45492 2.24472 7
    endloop
  endfacet
  facet normal 0 0.955422 -0.295243
    outer loop
      vertex 85.5451 2.24472 148
      vertex 5.75 3.1529 150.939
      vertex 85.25 3.1529 150.939
    endloop
  endfacet
  facet normal 0 0.955422 -0.295243
    outer loop
      vertex 5.75 3.1529 150.939
      vertex 85.5451 2.24472 148
      vertex 5.45492 2.24472 148
    endloop
  endfacet
  facet normal -0.90866 0.295243 -0.295243
    outer loop
      vertex 88.0451 7 150.939
      vertex 89 7 148
      vertex 88.0451 4.06107 148
    endloop
  endfacet
  facet normal -0.951056 0 -0.309019
    outer loop
      vertex 89 7 148
      vertex 88.0451 172 150.939
      vertex 89 172 148
    endloop
  endfacet
  facet normal -0.951056 -0 -0.309019
    outer loop
      vertex 88.0451 172 150.939
      vertex 89 7 148
      vertex 88.0451 7 150.939
    endloop
  endfacet
  facet normal 0.356823 0.491125 -0.794653
    outer loop
      vertex 5.75 4.86975 152
      vertex 6.2013 4.54186 152
      vertex 5.75 3.1529 150.939
    endloop
  endfacet
  facet normal -0.951056 -0.309019 0
    outer loop
      vertex 89 172 7
      vertex 88.0451 174.939 148
      vertex 88.0451 174.939 7
    endloop
  endfacet
  facet normal -0.951056 -0.309019 0
    outer loop
      vertex 88.0451 174.939 148
      vertex 89 172 7
      vertex 89 172 148
    endloop
  endfacet
  facet normal -0.587785 0 0.809017
    outer loop
      vertex 85.5451 172 2.24472
      vertex 88.0451 7 4.06107
      vertex 88.0451 172 4.06107
    endloop
  endfacet
  facet normal -0.587785 0 0.809017
    outer loop
      vertex 88.0451 7 4.06107
      vertex 85.5451 172 2.24472
      vertex 85.5451 7 2.24472
    endloop
  endfacet
  facet normal -0.561583 0.772953 0.295241
    outer loop
      vertex 85.5451 2.24472 7
      vertex 87.2725 4.62236 4.06107
      vertex 85.25 3.1529 4.06107
    endloop
  endfacet
  facet normal 0.577353 0.187593 -0.794653
    outer loop
      vertex 4.41536 7 152
      vertex 4.58774 6.46946 152
      vertex 2.95492 7 150.939
    endloop
  endfacet
  facet normal -0.356829 -0.491124 -0.794651
    outer loop
      vertex 85.25 175.847 150.939
      vertex 85.25 174.13 152
      vertex 84.7987 174.458 152
    endloop
  endfacet
  facet normal -0.587788 0 -0.809015
    outer loop
      vertex 86.5846 7 152
      vertex 88.0451 172 150.939
      vertex 88.0451 7 150.939
    endloop
  endfacet
  facet normal -0.587788 0 -0.809015
    outer loop
      vertex 88.0451 172 150.939
      vertex 86.5846 7 152
      vertex 86.5846 172 152
    endloop
  endfacet
  facet normal -0.908662 -0.29524 -0.29524
    outer loop
      vertex 88.0451 174.939 148
      vertex 88.0451 172 150.939
      vertex 87.2725 174.378 150.939
    endloop
  endfacet
  facet normal -0.561584 -0.772953 -0.29524
    outer loop
      vertex 88.0451 174.939 148
      vertex 87.2725 174.378 150.939
      vertex 85.25 175.847 150.939
    endloop
  endfacet
  facet normal 0.951056 -0.309018 0
    outer loop
      vertex 2 172 148
      vertex 2.95492 174.939 7
      vertex 2.95492 174.939 148
    endloop
  endfacet
  facet normal 0.951056 -0.309018 0
    outer loop
      vertex 2.95492 174.939 7
      vertex 2 172 148
      vertex 2 172 7
    endloop
  endfacet
  facet normal 0.561584 -0.772953 0.295241
    outer loop
      vertex 5.75 175.847 4.06107
      vertex 5.45492 176.755 7
      vertex 3.72746 174.378 4.06107
    endloop
  endfacet
  facet normal 0.57735 0.187593 0.794654
    outer loop
      vertex 3.72746 4.62236 4.06107
      vertex 5.75 6.09182 2.24472
      vertex 2.95492 7 4.06107
    endloop
  endfacet
  facet normal 0.57735 0.187593 0.794654
    outer loop
      vertex 5.75 6.09182 2.24472
      vertex 5.45492 7 2.24472
      vertex 2.95492 7 4.06107
    endloop
  endfacet
  facet normal 0.587788 0 -0.809015
    outer loop
      vertex 2.95492 7 150.939
      vertex 4.41536 172 152
      vertex 4.41536 7 152
    endloop
  endfacet
  facet normal 0.587788 0 -0.809015
    outer loop
      vertex 4.41536 172 152
      vertex 2.95492 7 150.939
      vertex 2.95492 172 150.939
    endloop
  endfacet
  facet normal -1 0 0
    outer loop
      vertex 89 96.3814 31.456
      vertex 89 172 7
      vertex 89 96.4868 29.5127
    endloop
  endfacet
  facet normal -1 0 0
    outer loop
      vertex 89 172 7
      vertex 89 96.172 27.5922
      vertex 89 96.4868 29.5127
    endloop
  endfacet
  facet normal -1 0 0
    outer loop
      vertex 89 172 7
      vertex 89 95.4516 25.7843
      vertex 89 96.172 27.5922
    endloop
  endfacet
  facet normal -1 0 0
    outer loop
      vertex 89 172 7
      vertex 89 94.3595 24.1735
      vertex 89 95.4516 25.7843
    endloop
  endfacet
  facet normal -1 0 0
    outer loop
      vertex 89 172 7
      vertex 89 92.9466 22.8352
      vertex 89 94.3595 24.1735
    endloop
  endfacet
  facet normal -1 0 0
    outer loop
      vertex 89 172 7
      vertex 89 91.279 21.8318
      vertex 89 92.9466 22.8352
    endloop
  endfacet
  facet normal -1 0 0
    outer loop
      vertex 89 172 7
      vertex 89 89.4347 21.2104
      vertex 89 91.279 21.8318
    endloop
  endfacet
  facet normal -1 0 0
    outer loop
      vertex 89 172 7
      vertex 89 87.5 21
      vertex 89 89.4347 21.2104
    endloop
  endfacet
  facet normal -1 0 0
    outer loop
      vertex 89 7 7
      vertex 89 87.5 21
      vertex 89 172 7
    endloop
  endfacet
  facet normal -1 -0 0
    outer loop
      vertex 89 78.828 27.5922
      vertex 89 7 7
      vertex 89 78.5132 29.5127
    endloop
  endfacet
  facet normal -1 -0 0
    outer loop
      vertex 89 79.5484 25.7843
      vertex 89 7 7
      vertex 89 78.828 27.5922
    endloop
  endfacet
  facet normal -1 -0 0
    outer loop
      vertex 89 80.6405 24.1735
      vertex 89 7 7
      vertex 89 79.5484 25.7843
    endloop
  endfacet
  facet normal -1 -0 0
    outer loop
      vertex 89 82.0534 22.8352
      vertex 89 7 7
      vertex 89 80.6405 24.1735
    endloop
  endfacet
  facet normal -1 -0 0
    outer loop
      vertex 89 83.721 21.8318
      vertex 89 7 7
      vertex 89 82.0534 22.8352
    endloop
  endfacet
  facet normal -1 -0 0
    outer loop
      vertex 89 85.5653 21.2104
      vertex 89 7 7
      vertex 89 83.721 21.8318
    endloop
  endfacet
  facet normal -1 -0 0
    outer loop
      vertex 89 87.5 21
      vertex 89 7 7
      vertex 89 85.5653 21.2104
    endloop
  endfacet
  facet normal -1 0 0
    outer loop
      vertex 89 95.8608 33.3312
      vertex 89 172 7
      vertex 89 96.3814 31.456
    endloop
  endfacet
  facet normal -1 0 0
    outer loop
      vertex 89 94.9492 35.0507
      vertex 89 172 7
      vertex 89 95.8608 33.3312
    endloop
  endfacet
  facet normal -1 0 0
    outer loop
      vertex 89 172 7
      vertex 89 94.9492 35.0507
      vertex 89 172 148
    endloop
  endfacet
  facet normal -1 0 0
    outer loop
      vertex 89 93.6893 36.534
      vertex 89 172 148
      vertex 89 94.9492 35.0507
    endloop
  endfacet
  facet normal -1 0 0
    outer loop
      vertex 89 92.14 37.7117
      vertex 89 172 148
      vertex 89 93.6893 36.534
    endloop
  endfacet
  facet normal -1 0 0
    outer loop
      vertex 89 90.3737 38.5289
      vertex 89 172 148
      vertex 89 92.14 37.7117
    endloop
  endfacet
  facet normal -1 0 0
    outer loop
      vertex 89 88.4731 38.9472
      vertex 89 172 148
      vertex 89 90.3737 38.5289
    endloop
  endfacet
  facet normal -1 0 0
    outer loop
      vertex 89 7 148
      vertex 89 88.4731 38.9472
      vertex 89 86.5269 38.9472
    endloop
  endfacet
  facet normal -1 0 0
    outer loop
      vertex 89 7 148
      vertex 89 86.5269 38.9472
      vertex 89 84.6263 38.5289
    endloop
  endfacet
  facet normal -1 0 0
    outer loop
      vertex 89 7 148
      vertex 89 84.6263 38.5289
      vertex 89 82.86 37.7117
    endloop
  endfacet
  facet normal -1 0 0
    outer loop
      vertex 89 7 148
      vertex 89 82.86 37.7117
      vertex 89 81.3107 36.534
    endloop
  endfacet
  facet normal -1 0 0
    outer loop
      vertex 89 7 148
      vertex 89 81.3107 36.534
      vertex 89 80.0508 35.0507
    endloop
  endfacet
  facet normal -1 0 0
    outer loop
      vertex 89 7 7
      vertex 89 78.6186 31.456
      vertex 89 78.5132 29.5127
    endloop
  endfacet
  facet normal -1 0 0
    outer loop
      vertex 89 7 7
      vertex 89 79.1392 33.3312
      vertex 89 78.6186 31.456
    endloop
  endfacet
  facet normal -1 0 0
    outer loop
      vertex 89 7 7
      vertex 89 80.0508 35.0507
      vertex 89 79.1392 33.3312
    endloop
  endfacet
  facet normal -1 0 0
    outer loop
      vertex 89 7 148
      vertex 89 80.0508 35.0507
      vertex 89 7 7
    endloop
  endfacet
  facet normal -1 0 0
    outer loop
      vertex 89 88.4731 38.9472
      vertex 89 7 148
      vertex 89 172 148
    endloop
  endfacet
  facet normal -0.577352 0.187592 -0.794653
    outer loop
      vertex 86.2634 6.01132 152
      vertex 88.0451 7 150.939
      vertex 87.2725 4.62236 150.939
    endloop
  endfacet
  facet normal -0.577353 0.187595 -0.794652
    outer loop
      vertex 88.0451 7 150.939
      vertex 86.2634 6.01132 152
      vertex 86.5846 7 152
    endloop
  endfacet
  facet normal -0.908662 0.29524 -0.295241
    outer loop
      vertex 88.0451 7 150.939
      vertex 88.0451 4.06107 148
      vertex 87.2725 4.62236 150.939
    endloop
  endfacet
  facet normal -0.356822 -0.491123 0.794655
    outer loop
      vertex 87.2725 174.378 4.06107
      vertex 85.25 175.847 4.06107
      vertex 85.25 172.908 2.24472
    endloop
  endfacet
  facet normal -0.57735 -0.187591 0.794655
    outer loop
      vertex 88.0451 172 4.06107
      vertex 87.2725 174.378 4.06107
      vertex 85.25 172.908 2.24472
    endloop
  endfacet
  facet normal 0.908661 0.295242 -0.295242
    outer loop
      vertex 2.95492 7 150.939
      vertex 2.95492 4.06107 148
      vertex 2 7 148
    endloop
  endfacet
  facet normal 0.908661 0.295242 -0.295243
    outer loop
      vertex 2.95492 7 150.939
      vertex 3.72746 4.62236 150.939
      vertex 2.95492 4.06107 148
    endloop
  endfacet
  facet normal 0.908661 0.295242 0.295242
    outer loop
      vertex 2.95492 4.06107 7
      vertex 2.95492 7 4.06107
      vertex 2 7 7
    endloop
  endfacet
  facet normal 0.951056 0.309017 0
    outer loop
      vertex 2.95492 4.06107 148
      vertex 2 7 7
      vertex 2 7 148
    endloop
  endfacet
  facet normal 0.951056 0.309017 0
    outer loop
      vertex 2 7 7
      vertex 2.95492 4.06107 148
      vertex 2.95492 4.06107 7
    endloop
  endfacet
  facet normal -0.577353 -0.187591 -0.794653
    outer loop
      vertex 88.0451 172 150.939
      vertex 86.5846 172 152
      vertex 86.4123 172.531 152
    endloop
  endfacet
  facet normal 0.587786 -0.809016 0
    outer loop
      vertex 2.95492 174.939 7
      vertex 5.45492 176.755 148
      vertex 2.95492 174.939 148
    endloop
  endfacet
  facet normal 0.587786 -0.809016 0
    outer loop
      vertex 5.45492 176.755 148
      vertex 2.95492 174.939 7
      vertex 5.45492 176.755 7
    endloop
  endfacet
  facet normal 0.561584 -0.772953 0.295241
    outer loop
      vertex 3.72746 174.378 4.06107
      vertex 5.45492 176.755 7
      vertex 2.95492 174.939 7
    endloop
  endfacet
  facet normal 0 0 1
    outer loop
      vertex 84.4775 173.469 2.24472
      vertex 85.5451 172 2.24472
      vertex 85.25 172.908 2.24472
    endloop
  endfacet
  facet normal 0 0 1
    outer loop
      vertex 85.5451 172 2.24472
      vertex 5.45492 172 2.24472
      vertex 85.5451 7 2.24472
    endloop
  endfacet
  facet normal 0 0 1
    outer loop
      vertex 85.5451 172 2.24472
      vertex 84.4775 173.469 2.24472
      vertex 5.45492 172 2.24472
    endloop
  endfacet
  facet normal 0 0 1
    outer loop
      vertex 5.45492 7 2.24472
      vertex 85.5451 7 2.24472
      vertex 5.45492 172 2.24472
    endloop
  endfacet
  facet normal 0 0 1
    outer loop
      vertex 5.45492 172 2.24472
      vertex 84.4775 173.469 2.24472
      vertex 6.52254 173.469 2.24472
    endloop
  endfacet
  facet normal 0 -0 1
    outer loop
      vertex 84.4775 5.53054 2.24472
      vertex 85.5451 7 2.24472
      vertex 5.45492 7 2.24472
    endloop
  endfacet
  facet normal 0 0 1
    outer loop
      vertex 5.45492 172 2.24472
      vertex 6.52254 173.469 2.24472
      vertex 5.75 172.908 2.24472
    endloop
  endfacet
  facet normal 0 0 1
    outer loop
      vertex 85.5451 7 2.24472
      vertex 84.4775 5.53054 2.24472
      vertex 85.25 6.09182 2.24472
    endloop
  endfacet
  facet normal 0 0 1
    outer loop
      vertex 84.4775 5.53054 2.24472
      vertex 5.45492 7 2.24472
      vertex 6.52254 5.53054 2.24472
    endloop
  endfacet
  facet normal 0 0 1
    outer loop
      vertex 6.52254 5.53054 2.24472
      vertex 5.45492 7 2.24472
      vertex 5.75 6.09182 2.24472
    endloop
  endfacet
  facet normal 0.356822 0.491124 0.794655
    outer loop
      vertex 6.52254 5.53054 2.24472
      vertex 5.75 6.09182 2.24472
      vertex 5.75 3.1529 4.06107
    endloop
  endfacet
  facet normal -0.90866 0.295243 0.295243
    outer loop
      vertex 89 7 7
      vertex 88.0451 7 4.06107
      vertex 88.0451 4.06107 7
    endloop
  endfacet
  facet normal -0.951056 0.309018 0
    outer loop
      vertex 88.0451 4.06107 7
      vertex 89 7 148
      vertex 89 7 7
    endloop
  endfacet
  facet normal -0.951056 0.309018 0
    outer loop
      vertex 89 7 148
      vertex 88.0451 4.06107 7
      vertex 88.0451 4.06107 148
    endloop
  endfacet
  facet normal -0.57735 -0.187592 0.794655
    outer loop
      vertex 85.5451 172 2.24472
      vertex 88.0451 172 4.06107
      vertex 85.25 172.908 2.24472
    endloop
  endfacet
  facet normal -0.908662 -0.29524 0.29524
    outer loop
      vertex 88.0451 172 4.06107
      vertex 88.0451 174.939 7
      vertex 87.2725 174.378 4.06107
    endloop
  endfacet
  facet normal -0.356826 -0.491122 0.794654
    outer loop
      vertex 85.25 172.908 2.24472
      vertex 85.25 175.847 4.06107
      vertex 84.4775 173.469 2.24472
    endloop
  endfacet
  facet normal -0.577351 0.187591 0.794655
    outer loop
      vertex 88.0451 7 4.06107
      vertex 85.5451 7 2.24472
      vertex 85.25 6.09182 2.24472
    endloop
  endfacet
  facet normal -0.356821 0.491124 0.794655
    outer loop
      vertex 85.25 3.1529 4.06107
      vertex 85.25 6.09182 2.24472
      vertex 84.4775 5.53054 2.24472
    endloop
  endfacet
  facet normal -0.951057 0 0.309016
    outer loop
      vertex 177.045 7 4.06107
      vertex 178 172 7
      vertex 177.045 172 4.06107
    endloop
  endfacet
  facet normal -0.951057 0 0.309016
    outer loop
      vertex 178 172 7
      vertex 177.045 7 4.06107
      vertex 178 7 7
    endloop
  endfacet
  facet normal 0 -0.607062 0.794654
    outer loop
      vertex 174.25 175.847 4.06107
      vertex 95.5225 173.469 2.24472
      vertex 173.477 173.469 2.24472
    endloop
  endfacet
  facet normal 0 -0.607062 0.794654
    outer loop
      vertex 95.5225 173.469 2.24472
      vertex 174.25 175.847 4.06107
      vertex 94.75 175.847 4.06107
    endloop
  endfacet
  facet normal 0.561583 0.772953 -0.295242
    outer loop
      vertex 94.75 3.1529 150.939
      vertex 94.4549 2.24472 148
      vertex 91.9549 4.06107 148
    endloop
  endfacet
  facet normal -0.561584 -0.772953 0.295241
    outer loop
      vertex 177.045 174.939 7
      vertex 174.545 176.755 7
      vertex 174.25 175.847 4.06107
    endloop
  endfacet
  facet normal 0.561584 -0.772953 -0.295241
    outer loop
      vertex 94.4549 176.755 148
      vertex 94.75 175.847 150.939
      vertex 92.7275 174.378 150.939
    endloop
  endfacet
  facet normal -0.908659 -0.295245 0.295245
    outer loop
      vertex 177.045 172 4.06107
      vertex 177.045 174.939 7
      vertex 176.273 174.378 4.06107
    endloop
  endfacet
  facet normal 0.577351 0.187594 -0.794653
    outer loop
      vertex 92.7275 4.62236 150.939
      vertex 93.5877 6.46946 152
      vertex 93.909 5.48079 152
    endloop
  endfacet
  facet normal 0.577354 0.187592 -0.794652
    outer loop
      vertex 93.5877 6.46946 152
      vertex 92.7275 4.62236 150.939
      vertex 91.9549 7 150.939
    endloop
  endfacet
  facet normal 0.561583 0.772953 -0.295242
    outer loop
      vertex 92.7275 4.62236 150.939
      vertex 94.75 3.1529 150.939
      vertex 91.9549 4.06107 148
    endloop
  endfacet
  facet normal 0.561583 0.772953 0.295241
    outer loop
      vertex 94.4549 2.24472 7
      vertex 94.75 3.1529 4.06107
      vertex 91.9549 4.06107 7
    endloop
  endfacet
  facet normal 0 -0.607065 -0.794652
    outer loop
      vertex 95.2013 174.458 152
      vertex 174.25 175.847 150.939
      vertex 173.799 174.458 152
    endloop
  endfacet
  facet normal -0 -0.607065 -0.794652
    outer loop
      vertex 174.25 175.847 150.939
      vertex 95.2013 174.458 152
      vertex 94.75 175.847 150.939
    endloop
  endfacet
  facet normal 0.561584 -0.772953 -0.29524
    outer loop
      vertex 94.4549 176.755 148
      vertex 92.7275 174.378 150.939
      vertex 91.9549 174.939 148
    endloop
  endfacet
  facet normal -0.356821 0.49113 -0.794651
    outer loop
      vertex 175.091 5.48079 152
      vertex 176.273 4.62236 150.939
      vertex 174.64 5.1529 152
    endloop
  endfacet
  facet normal -0 0.607062 0.794654
    outer loop
      vertex 95.5225 5.53054 2.24472
      vertex 174.25 3.1529 4.06107
      vertex 173.477 5.53054 2.24472
    endloop
  endfacet
  facet normal 0 0.607062 0.794654
    outer loop
      vertex 174.25 3.1529 4.06107
      vertex 95.5225 5.53054 2.24472
      vertex 94.75 3.1529 4.06107
    endloop
  endfacet
  facet normal 0.356826 -0.491122 0.794654
    outer loop
      vertex 95.5225 173.469 2.24472
      vertex 94.75 175.847 4.06107
      vertex 94.75 172.908 2.24472
    endloop
  endfacet
  facet normal 0.951056 -0 0.309018
    outer loop
      vertex 91 7 7
      vertex 91.9549 172 4.06107
      vertex 91 172 7
    endloop
  endfacet
  facet normal 0.951056 0 0.309018
    outer loop
      vertex 91.9549 172 4.06107
      vertex 91 7 7
      vertex 91.9549 7 4.06107
    endloop
  endfacet
  facet normal 0 -1 0
    outer loop
      vertex 94.4549 176.755 7
      vertex 174.545 176.755 148
      vertex 94.4549 176.755 148
    endloop
  endfacet
  facet normal 0 -1 -0
    outer loop
      vertex 174.545 176.755 148
      vertex 94.4549 176.755 7
      vertex 174.545 176.755 7
    endloop
  endfacet
  facet normal 0 -0.955423 0.29524
    outer loop
      vertex 94.75 175.847 4.06107
      vertex 174.545 176.755 7
      vertex 94.4549 176.755 7
    endloop
  endfacet
  facet normal 0 -0.955423 0.29524
    outer loop
      vertex 174.545 176.755 7
      vertex 94.75 175.847 4.06107
      vertex 174.25 175.847 4.06107
    endloop
  endfacet
  facet normal 0.908662 -0.29524 0.29524
    outer loop
      vertex 92.7275 174.378 4.06107
      vertex 91.9549 174.939 7
      vertex 91.9549 172 4.06107
    endloop
  endfacet
  facet normal 0.356827 -0.491121 -0.794654
    outer loop
      vertex 94.3603 173.847 152
      vertex 93.909 173.519 152
      vertex 92.7275 174.378 150.939
    endloop
  endfacet
  facet normal 0.356825 -0.491125 -0.794652
    outer loop
      vertex 94.3603 173.847 152
      vertex 94.75 175.847 150.939
      vertex 95.2013 174.458 152
    endloop
  endfacet
  facet normal 0.356824 -0.491125 -0.794652
    outer loop
      vertex 94.75 175.847 150.939
      vertex 94.3603 173.847 152
      vertex 92.7275 174.378 150.939
    endloop
  endfacet
  facet normal 0 -0.955423 -0.295241
    outer loop
      vertex 94.4549 176.755 148
      vertex 174.25 175.847 150.939
      vertex 94.75 175.847 150.939
    endloop
  endfacet
  facet normal 0 -0.955423 -0.295241
    outer loop
      vertex 174.25 175.847 150.939
      vertex 94.4549 176.755 148
      vertex 174.545 176.755 148
    endloop
  endfacet
  facet normal -0.356824 0.491124 -0.794653
    outer loop
      vertex 174.25 3.1529 150.939
      vertex 174.64 5.1529 152
      vertex 176.273 4.62236 150.939
    endloop
  endfacet
  facet normal -0.356823 0.491124 -0.794653
    outer loop
      vertex 174.64 5.1529 152
      vertex 174.25 3.1529 150.939
      vertex 173.799 4.54186 152
    endloop
  endfacet
  facet normal 0.356823 0.491126 -0.794653
    outer loop
      vertex 92.7275 4.62236 150.939
      vertex 94.75 4.86975 152
      vertex 94.75 3.1529 150.939
    endloop
  endfacet
  facet normal 0.356823 0.491125 -0.794653
    outer loop
      vertex 94.75 4.86975 152
      vertex 92.7275 4.62236 150.939
      vertex 93.909 5.48079 152
    endloop
  endfacet
  facet normal -0.908659 0.295245 0.295245
    outer loop
      vertex 177.045 4.06107 7
      vertex 177.045 7 4.06107
      vertex 176.273 4.62236 4.06107
    endloop
  endfacet
  facet normal 0 0.955423 0.295242
    outer loop
      vertex 174.25 3.1529 4.06107
      vertex 94.4549 2.24472 7
      vertex 174.545 2.24472 7
    endloop
  endfacet
  facet normal 0 0.955423 0.295242
    outer loop
      vertex 94.4549 2.24472 7
      vertex 174.25 3.1529 4.06107
      vertex 94.75 3.1529 4.06107
    endloop
  endfacet
  facet normal -0.587785 0.809017 0
    outer loop
      vertex 177.045 4.06107 7
      vertex 174.545 2.24472 148
      vertex 177.045 4.06107 148
    endloop
  endfacet
  facet normal -0.587785 0.809017 0
    outer loop
      vertex 174.545 2.24472 148
      vertex 177.045 4.06107 7
      vertex 174.545 2.24472 7
    endloop
  endfacet
  facet normal -0.577352 -0.187596 -0.794653
    outer loop
      vertex 175.412 172.531 152
      vertex 176.273 174.378 150.939
      vertex 177.045 172 150.939
    endloop
  endfacet
  facet normal -0.577353 -0.187595 -0.794652
    outer loop
      vertex 176.273 174.378 150.939
      vertex 175.412 172.531 152
      vertex 175.091 173.519 152
    endloop
  endfacet
  facet normal -0.908661 -0.295241 -0.295241
    outer loop
      vertex 177.045 174.939 148
      vertex 178 172 148
      vertex 177.045 172 150.939
    endloop
  endfacet
  facet normal 0.356822 -0.491123 0.794655
    outer loop
      vertex 94.75 172.908 2.24472
      vertex 94.75 175.847 4.06107
      vertex 92.7275 174.378 4.06107
    endloop
  endfacet
  facet normal 0.57735 -0.187592 0.794655
    outer loop
      vertex 94.4549 172 2.24472
      vertex 94.75 172.908 2.24472
      vertex 91.9549 172 4.06107
    endloop
  endfacet
  facet normal 0.908662 0.29524 0.29524
    outer loop
      vertex 92.7275 4.62236 4.06107
      vertex 91.9549 7 4.06107
      vertex 91.9549 4.06107 7
    endloop
  endfacet
  facet normal 0.587785 0 0.809017
    outer loop
      vertex 91.9549 172 4.06107
      vertex 94.4549 7 2.24472
      vertex 94.4549 172 2.24472
    endloop
  endfacet
  facet normal 0.587785 0 0.809017
    outer loop
      vertex 94.4549 7 2.24472
      vertex 91.9549 172 4.06107
      vertex 91.9549 7 4.06107
    endloop
  endfacet
  facet normal 0.951056 0 -0.309019
    outer loop
      vertex 91.9549 7 150.939
      vertex 91 172 148
      vertex 91.9549 172 150.939
    endloop
  endfacet
  facet normal 0.951056 0 -0.309019
    outer loop
      vertex 91 172 148
      vertex 91.9549 7 150.939
      vertex 91 7 148
    endloop
  endfacet
  facet normal 0.908662 -0.29524 -0.29524
    outer loop
      vertex 91.9549 174.939 148
      vertex 92.7275 174.378 150.939
      vertex 91.9549 172 150.939
    endloop
  endfacet
  facet normal -0.561583 0.772953 0.295244
    outer loop
      vertex 177.045 4.06107 7
      vertex 176.273 4.62236 4.06107
      vertex 174.545 2.24472 7
    endloop
  endfacet
  facet normal -0.561584 0.772952 -0.295243
    outer loop
      vertex 176.273 4.62236 150.939
      vertex 174.545 2.24472 148
      vertex 174.25 3.1529 150.939
    endloop
  endfacet
  facet normal -0.561583 0.772952 -0.295244
    outer loop
      vertex 176.273 4.62236 150.939
      vertex 177.045 4.06107 148
      vertex 174.545 2.24472 148
    endloop
  endfacet
  facet normal 0 0.607064 -0.794653
    outer loop
      vertex 174.25 3.1529 150.939
      vertex 95.2013 4.54186 152
      vertex 173.799 4.54186 152
    endloop
  endfacet
  facet normal 0 0.607064 -0.794653
    outer loop
      vertex 95.2013 4.54186 152
      vertex 174.25 3.1529 150.939
      vertex 94.75 3.1529 150.939
    endloop
  endfacet
  facet normal 0.577353 -0.187591 -0.794653
    outer loop
      vertex 93.909 173.519 152
      vertex 93.7366 172.989 152
      vertex 92.7275 174.378 150.939
    endloop
  endfacet
  facet normal -0.561585 -0.772952 0.295242
    outer loop
      vertex 176.273 174.378 4.06107
      vertex 177.045 174.939 7
      vertex 174.25 175.847 4.06107
    endloop
  endfacet
  facet normal -0.57735 0.187595 0.794654
    outer loop
      vertex 176.273 4.62236 4.06107
      vertex 177.045 7 4.06107
      vertex 174.25 6.09182 2.24472
    endloop
  endfacet
  facet normal -0.57735 0.187596 0.794654
    outer loop
      vertex 177.045 7 4.06107
      vertex 174.545 7 2.24472
      vertex 174.25 6.09182 2.24472
    endloop
  endfacet
  facet normal 0.587785 0.809017 -0
    outer loop
      vertex 94.4549 2.24472 7
      vertex 91.9549 4.06107 148
      vertex 94.4549 2.24472 148
    endloop
  endfacet
  facet normal 0.587785 0.809017 0
    outer loop
      vertex 91.9549 4.06107 148
      vertex 94.4549 2.24472 7
      vertex 91.9549 4.06107 7
    endloop
  endfacet
  facet normal -0.577356 0.187591 -0.794651
    outer loop
      vertex 175.263 6.01132 152
      vertex 176.273 4.62236 150.939
      vertex 175.091 5.48079 152
    endloop
  endfacet
  facet normal -0.356825 -0.491125 -0.794653
    outer loop
      vertex 174.25 174.13 152
      vertex 176.273 174.378 150.939
      vertex 175.091 173.519 152
    endloop
  endfacet
  facet normal -0.356825 -0.491124 -0.794653
    outer loop
      vertex 176.273 174.378 150.939
      vertex 174.25 174.13 152
      vertex 174.25 175.847 150.939
    endloop
  endfacet
  facet normal -0.587786 -0.809016 0
    outer loop
      vertex 174.545 176.755 7
      vertex 177.045 174.939 148
      vertex 174.545 176.755 148
    endloop
  endfacet
  facet normal -0.587786 -0.809016 -0
    outer loop
      vertex 177.045 174.939 148
      vertex 174.545 176.755 7
      vertex 177.045 174.939 7
    endloop
  endfacet
  facet normal -0.561584 -0.772952 -0.295242
    outer loop
      vertex 174.545 176.755 148
      vertex 177.045 174.939 148
      vertex 174.25 175.847 150.939
    endloop
  endfacet
  facet normal 0.561585 -0.772953 0.29524
    outer loop
      vertex 92.7275 174.378 4.06107
      vertex 94.4549 176.755 7
      vertex 91.9549 174.939 7
    endloop
  endfacet
  facet normal 0.57735 -0.187591 0.794655
    outer loop
      vertex 94.75 172.908 2.24472
      vertex 92.7275 174.378 4.06107
      vertex 91.9549 172 4.06107
    endloop
  endfacet
  facet normal 0.90866 0.295243 0.295243
    outer loop
      vertex 91.9549 4.06107 7
      vertex 91.9549 7 4.06107
      vertex 91 7 7
    endloop
  endfacet
  facet normal 0.561583 0.772954 0.295241
    outer loop
      vertex 94.75 3.1529 4.06107
      vertex 92.7275 4.62236 4.06107
      vertex 91.9549 4.06107 7
    endloop
  endfacet
  facet normal 0.356822 0.491124 0.794655
    outer loop
      vertex 94.75 3.1529 4.06107
      vertex 94.75 6.09182 2.24472
      vertex 92.7275 4.62236 4.06107
    endloop
  endfacet
  facet normal 0.90866 -0.295243 -0.295243
    outer loop
      vertex 91.9549 174.939 148
      vertex 91.9549 172 150.939
      vertex 91 172 148
    endloop
  endfacet
  facet normal 0.577353 -0.187595 -0.794652
    outer loop
      vertex 91.9549 172 150.939
      vertex 93.7366 172.989 152
      vertex 93.4154 172 152
    endloop
  endfacet
  facet normal 0.577352 -0.187592 -0.794653
    outer loop
      vertex 93.7366 172.989 152
      vertex 91.9549 172 150.939
      vertex 92.7275 174.378 150.939
    endloop
  endfacet
  facet normal 0 1 -0
    outer loop
      vertex 174.545 2.24472 7
      vertex 94.4549 2.24472 148
      vertex 174.545 2.24472 148
    endloop
  endfacet
  facet normal 0 1 0
    outer loop
      vertex 94.4549 2.24472 148
      vertex 174.545 2.24472 7
      vertex 94.4549 2.24472 7
    endloop
  endfacet
  facet normal 0 0.955422 -0.295243
    outer loop
      vertex 174.545 2.24472 148
      vertex 94.75 3.1529 150.939
      vertex 174.25 3.1529 150.939
    endloop
  endfacet
  facet normal 0 0.955422 -0.295243
    outer loop
      vertex 94.75 3.1529 150.939
      vertex 174.545 2.24472 148
      vertex 94.4549 2.24472 148
    endloop
  endfacet
  facet normal -0.908661 0.295241 -0.295241
    outer loop
      vertex 177.045 7 150.939
      vertex 178 7 148
      vertex 177.045 4.06107 148
    endloop
  endfacet
  facet normal -0.951057 0 -0.309016
    outer loop
      vertex 178 7 148
      vertex 177.045 172 150.939
      vertex 178 172 148
    endloop
  endfacet
  facet normal -0.951057 -0 -0.309016
    outer loop
      vertex 177.045 172 150.939
      vertex 178 7 148
      vertex 177.045 7 150.939
    endloop
  endfacet
  facet normal 0.356824 0.491125 -0.794653
    outer loop
      vertex 94.75 4.86975 152
      vertex 95.2013 4.54186 152
      vertex 94.75 3.1529 150.939
    endloop
  endfacet
  facet normal -0.951057 -0.309016 0
    outer loop
      vertex 178 172 7
      vertex 177.045 174.939 148
      vertex 177.045 174.939 7
    endloop
  endfacet
  facet normal -0.951057 -0.309016 0
    outer loop
      vertex 177.045 174.939 148
      vertex 178 172 7
      vertex 178 172 148
    endloop
  endfacet
  facet normal -0.57735 -0.187597 0.794654
    outer loop
      vertex 174.545 172 2.24472
      vertex 177.045 172 4.06107
      vertex 174.25 172.908 2.24472
    endloop
  endfacet
  facet normal -0.561584 0.772952 0.295243
    outer loop
      vertex 174.545 2.24472 7
      vertex 176.273 4.62236 4.06107
      vertex 174.25 3.1529 4.06107
    endloop
  endfacet
  facet normal 0.577353 0.18759 -0.794653
    outer loop
      vertex 93.4154 7 152
      vertex 93.5877 6.46946 152
      vertex 91.9549 7 150.939
    endloop
  endfacet
  facet normal -0.356824 -0.491125 -0.794653
    outer loop
      vertex 174.25 175.847 150.939
      vertex 174.25 174.13 152
      vertex 173.799 174.458 152
    endloop
  endfacet
  facet normal -0.577351 -0.187591 -0.794654
    outer loop
      vertex 177.045 172 150.939
      vertex 175.585 172 152
      vertex 175.412 172.531 152
    endloop
  endfacet
  facet normal -0.908659 -0.295245 -0.295245
    outer loop
      vertex 177.045 174.939 148
      vertex 177.045 172 150.939
      vertex 176.273 174.378 150.939
    endloop
  endfacet
  facet normal -0.561585 -0.772951 -0.295243
    outer loop
      vertex 177.045 174.939 148
      vertex 176.273 174.378 150.939
      vertex 174.25 175.847 150.939
    endloop
  endfacet
  facet normal 0.90866 -0.295243 0.295243
    outer loop
      vertex 91.9549 172 4.06107
      vertex 91.9549 174.939 7
      vertex 91 172 7
    endloop
  endfacet
  facet normal 0.561584 -0.772953 0.29524
    outer loop
      vertex 94.75 175.847 4.06107
      vertex 94.4549 176.755 7
      vertex 92.7275 174.378 4.06107
    endloop
  endfacet
  facet normal 0.577351 0.187591 0.794655
    outer loop
      vertex 92.7275 4.62236 4.06107
      vertex 94.75 6.09182 2.24472
      vertex 91.9549 7 4.06107
    endloop
  endfacet
  facet normal 0.577351 0.187591 0.794655
    outer loop
      vertex 94.75 6.09182 2.24472
      vertex 94.4549 7 2.24472
      vertex 91.9549 7 4.06107
    endloop
  endfacet
  facet normal 0.587788 0 -0.809015
    outer loop
      vertex 91.9549 7 150.939
      vertex 93.4154 172 152
      vertex 93.4154 7 152
    endloop
  endfacet
  facet normal 0.587788 0 -0.809015
    outer loop
      vertex 93.4154 172 152
      vertex 91.9549 7 150.939
      vertex 91.9549 172 150.939
    endloop
  endfacet
  facet normal -1 0 0
    outer loop
      vertex 178 7 7
      vertex 178 172 148
      vertex 178 172 7
    endloop
  endfacet
  facet normal -1 -0 0
    outer loop
      vertex 178 172 148
      vertex 178 7 7
      vertex 178 7 148
    endloop
  endfacet
  facet normal -0.577351 0.187595 -0.794653
    outer loop
      vertex 175.263 6.01132 152
      vertex 177.045 7 150.939
      vertex 176.273 4.62236 150.939
    endloop
  endfacet
  facet normal -0.577351 0.187594 -0.794654
    outer loop
      vertex 177.045 7 150.939
      vertex 175.263 6.01132 152
      vertex 175.585 7 152
    endloop
  endfacet
  facet normal -0.908659 0.295245 -0.295246
    outer loop
      vertex 177.045 7 150.939
      vertex 177.045 4.06107 148
      vertex 176.273 4.62236 150.939
    endloop
  endfacet
  facet normal -0.356823 -0.491122 0.794655
    outer loop
      vertex 176.273 174.378 4.06107
      vertex 174.25 175.847 4.06107
      vertex 174.25 172.908 2.24472
    endloop
  endfacet
  facet normal -0.57735 -0.187595 0.794654
    outer loop
      vertex 177.045 172 4.06107
      vertex 176.273 174.378 4.06107
      vertex 174.25 172.908 2.24472
    endloop
  endfacet
  facet normal -0.356823 0.491123 0.794654
    outer loop
      vertex 176.273 4.62236 4.06107
      vertex 174.25 6.09182 2.24472
      vertex 174.25 3.1529 4.06107
    endloop
  endfacet
  facet normal 0.90866 0.295243 -0.295243
    outer loop
      vertex 91.9549 7 150.939
      vertex 91.9549 4.06107 148
      vertex 91 7 148
    endloop
  endfacet
  facet normal 0.908662 0.29524 -0.295241
    outer loop
      vertex 91.9549 7 150.939
      vertex 92.7275 4.62236 150.939
      vertex 91.9549 4.06107 148
    endloop
  endfacet
  facet normal 0.951056 0.309018 0
    outer loop
      vertex 91.9549 4.06107 148
      vertex 91 7 7
      vertex 91 7 148
    endloop
  endfacet
  facet normal 0.951056 0.309018 0
    outer loop
      vertex 91 7 7
      vertex 91.9549 4.06107 148
      vertex 91.9549 4.06107 7
    endloop
  endfacet
  facet normal 1 -0 0
    outer loop
      vertex 91 94.9492 35.0507
      vertex 91 172 7
      vertex 91 172 148
    endloop
  endfacet
  facet normal 1 0 0
    outer loop
      vertex 91 172 7
      vertex 91 96.3814 31.456
      vertex 91 96.4868 29.5127
    endloop
  endfacet
  facet normal 1 0 0
    outer loop
      vertex 91 172 7
      vertex 91 95.8608 33.3312
      vertex 91 96.3814 31.456
    endloop
  endfacet
  facet normal 1 0 0
    outer loop
      vertex 91 172 7
      vertex 91 94.9492 35.0507
      vertex 91 95.8608 33.3312
    endloop
  endfacet
  facet normal 1 0 0
    outer loop
      vertex 91 172 148
      vertex 91 93.6893 36.534
      vertex 91 94.9492 35.0507
    endloop
  endfacet
  facet normal 1 0 0
    outer loop
      vertex 91 172 148
      vertex 91 92.14 37.7117
      vertex 91 93.6893 36.534
    endloop
  endfacet
  facet normal 1 0 0
    outer loop
      vertex 91 172 148
      vertex 91 90.3737 38.5289
      vertex 91 92.14 37.7117
    endloop
  endfacet
  facet normal 1 0 0
    outer loop
      vertex 91 172 148
      vertex 91 88.4731 38.9472
      vertex 91 90.3737 38.5289
    endloop
  endfacet
  facet normal 1 -0 0
    outer loop
      vertex 91 7 148
      vertex 91 88.4731 38.9472
      vertex 91 172 148
    endloop
  endfacet
  facet normal 1 0 0
    outer loop
      vertex 91 88.4731 38.9472
      vertex 91 7 148
      vertex 91 86.5269 38.9472
    endloop
  endfacet
  facet normal 1 0 0
    outer loop
      vertex 91 86.5269 38.9472
      vertex 91 7 148
      vertex 91 84.6263 38.5289
    endloop
  endfacet
  facet normal 1 0 0
    outer loop
      vertex 91 84.6263 38.5289
      vertex 91 7 148
      vertex 91 82.86 37.7117
    endloop
  endfacet
  facet normal 1 0 0
    outer loop
      vertex 91 82.86 37.7117
      vertex 91 7 148
      vertex 91 81.3107 36.534
    endloop
  endfacet
  facet normal 1 0 0
    outer loop
      vertex 91 79.1392 33.3312
      vertex 91 7 7
      vertex 91 78.6186 31.456
    endloop
  endfacet
  facet normal 1 0 0
    outer loop
      vertex 91 80.0508 35.0507
      vertex 91 7 7
      vertex 91 79.1392 33.3312
    endloop
  endfacet
  facet normal 1 0 0
    outer loop
      vertex 91 7 7
      vertex 91 80.0508 35.0507
      vertex 91 7 148
    endloop
  endfacet
  facet normal 1 0 0
    outer loop
      vertex 91 81.3107 36.534
      vertex 91 7 148
      vertex 91 80.0508 35.0507
    endloop
  endfacet
  facet normal 1 -0 0
    outer loop
      vertex 91 96.172 27.5922
      vertex 91 172 7
      vertex 91 96.4868 29.5127
    endloop
  endfacet
  facet normal 1 -0 0
    outer loop
      vertex 91 95.4516 25.7843
      vertex 91 172 7
      vertex 91 96.172 27.5922
    endloop
  endfacet
  facet normal 1 -0 0
    outer loop
      vertex 91 94.3595 24.1735
      vertex 91 172 7
      vertex 91 95.4516 25.7843
    endloop
  endfacet
  facet normal 1 -0 0
    outer loop
      vertex 91 92.9466 22.8352
      vertex 91 172 7
      vertex 91 94.3595 24.1735
    endloop
  endfacet
  facet normal 1 -0 0
    outer loop
      vertex 91 91.279 21.8318
      vertex 91 172 7
      vertex 91 92.9466 22.8352
    endloop
  endfacet
  facet normal 1 -0 0
    outer loop
      vertex 91 89.4347 21.2104
      vertex 91 172 7
      vertex 91 91.279 21.8318
    endloop
  endfacet
  facet normal 1 -0 0
    outer loop
      vertex 91 87.5 21
      vertex 91 172 7
      vertex 91 89.4347 21.2104
    endloop
  endfacet
  facet normal 1 0 0
    outer loop
      vertex 91 7 7
      vertex 91 87.5 21
      vertex 91 85.5653 21.2104
    endloop
  endfacet
  facet normal 1 0 0
    outer loop
      vertex 91 78.6186 31.456
      vertex 91 7 7
      vertex 91 78.5132 29.5127
    endloop
  endfacet
  facet normal 1 0 0
    outer loop
      vertex 91 78.5132 29.5127
      vertex 91 7 7
      vertex 91 78.828 27.5922
    endloop
  endfacet
  facet normal 1 0 0
    outer loop
      vertex 91 87.5 21
      vertex 91 7 7
      vertex 91 172 7
    endloop
  endfacet
  facet normal 1 0 0
    outer loop
      vertex 91 83.721 21.8318
      vertex 91 7 7
      vertex 91 85.5653 21.2104
    endloop
  endfacet
  facet normal 1 0 0
    outer loop
      vertex 91 82.0534 22.8352
      vertex 91 7 7
      vertex 91 83.721 21.8318
    endloop
  endfacet
  facet normal 1 0 0
    outer loop
      vertex 91 80.6405 24.1735
      vertex 91 7 7
      vertex 91 82.0534 22.8352
    endloop
  endfacet
  facet normal 1 0 0
    outer loop
      vertex 91 79.5484 25.7843
      vertex 91 7 7
      vertex 91 80.6405 24.1735
    endloop
  endfacet
  facet normal 1 0 0
    outer loop
      vertex 91 78.828 27.5922
      vertex 91 7 7
      vertex 91 79.5484 25.7843
    endloop
  endfacet
  facet normal -0.587786 0 -0.809016
    outer loop
      vertex 175.585 7 152
      vertex 177.045 172 150.939
      vertex 177.045 7 150.939
    endloop
  endfacet
  facet normal -0.587786 0 -0.809016
    outer loop
      vertex 177.045 172 150.939
      vertex 175.585 7 152
      vertex 175.585 172 152
    endloop
  endfacet
  facet normal 0.951056 -0.309019 0
    outer loop
      vertex 91 172 148
      vertex 91.9549 174.939 7
      vertex 91.9549 174.939 148
    endloop
  endfacet
  facet normal 0.951056 -0.309019 0
    outer loop
      vertex 91.9549 174.939 7
      vertex 91 172 148
      vertex 91 172 7
    endloop
  endfacet
  facet normal 0.587786 -0.809016 0
    outer loop
      vertex 91.9549 174.939 7
      vertex 94.4549 176.755 148
      vertex 91.9549 174.939 148
    endloop
  endfacet
  facet normal 0.587786 -0.809016 0
    outer loop
      vertex 94.4549 176.755 148
      vertex 91.9549 174.939 7
      vertex 94.4549 176.755 7
    endloop
  endfacet
  facet normal 0 0 1
    outer loop
      vertex 173.477 173.469 2.24472
      vertex 174.545 172 2.24472
      vertex 174.25 172.908 2.24472
    endloop
  endfacet
  facet normal 0 0 1
    outer loop
      vertex 174.545 172 2.24472
      vertex 94.4549 172 2.24472
      vertex 174.545 7 2.24472
    endloop
  endfacet
  facet normal 0 0 1
    outer loop
      vertex 174.545 172 2.24472
      vertex 173.477 173.469 2.24472
      vertex 94.4549 172 2.24472
    endloop
  endfacet
  facet normal 0 0 1
    outer loop
      vertex 94.4549 7 2.24472
      vertex 174.545 7 2.24472
      vertex 94.4549 172 2.24472
    endloop
  endfacet
  facet normal 0 0 1
    outer loop
      vertex 94.4549 172 2.24472
      vertex 173.477 173.469 2.24472
      vertex 95.5225 173.469 2.24472
    endloop
  endfacet
  facet normal 0 -0 1
    outer loop
      vertex 173.477 5.53054 2.24472
      vertex 174.545 7 2.24472
      vertex 94.4549 7 2.24472
    endloop
  endfacet
  facet normal 0 0 1
    outer loop
      vertex 94.4549 172 2.24472
      vertex 95.5225 173.469 2.24472
      vertex 94.75 172.908 2.24472
    endloop
  endfacet
  facet normal 0 0 1
    outer loop
      vertex 174.545 7 2.24472
      vertex 173.477 5.53054 2.24472
      vertex 174.25 6.09182 2.24472
    endloop
  endfacet
  facet normal 0 0 1
    outer loop
      vertex 173.477 5.53054 2.24472
      vertex 94.4549 7 2.24472
      vertex 95.5225 5.53054 2.24472
    endloop
  endfacet
  facet normal 0 0 1
    outer loop
      vertex 95.5225 5.53054 2.24472
      vertex 94.4549 7 2.24472
      vertex 94.75 6.09182 2.24472
    endloop
  endfacet
  facet normal 0.356821 0.491124 0.794655
    outer loop
      vertex 95.5225 5.53054 2.24472
      vertex 94.75 6.09182 2.24472
      vertex 94.75 3.1529 4.06107
    endloop
  endfacet
  facet normal -0.908662 0.295241 0.295241
    outer loop
      vertex 178 7 7
      vertex 177.045 7 4.06107
      vertex 177.045 4.06107 7
    endloop
  endfacet
  facet normal -0.951057 0.309016 0
    outer loop
      vertex 177.045 4.06107 7
      vertex 178 7 148
      vertex 178 7 7
    endloop
  endfacet
  facet normal -0.951057 0.309016 0
    outer loop
      vertex 178 7 148
      vertex 177.045 4.06107 7
      vertex 177.045 4.06107 148
    endloop
  endfacet
  facet normal -0.908661 -0.295241 0.295241
    outer loop
      vertex 178 172 7
      vertex 177.045 174.939 7
      vertex 177.045 172 4.06107
    endloop
  endfacet
  facet normal -0.356829 -0.491121 0.794653
    outer loop
      vertex 174.25 172.908 2.24472
      vertex 174.25 175.847 4.06107
      vertex 173.477 173.469 2.24472
    endloop
  endfacet
  facet normal -0.587785 0 0.809017
    outer loop
      vertex 174.545 172 2.24472
      vertex 177.045 7 4.06107
      vertex 177.045 172 4.06107
    endloop
  endfacet
  facet normal -0.587785 0 0.809017
    outer loop
      vertex 177.045 7 4.06107
      vertex 174.545 172 2.24472
      vertex 174.545 7 2.24472
    endloop
  endfacet
  facet normal -0.356824 0.491123 0.794654
    outer loop
      vertex 174.25 3.1529 4.06107
      vertex 174.25 6.09182 2.24472
      vertex 173.477 5.53054 2.24472
    endloop
  endfacet
  facet normal -1 0 0
    outer loop
      vertex 0 0 0
      vertex 0 179 152
      vertex 0 179 0
    endloop
  endfacet
  facet normal -1 -0 0
    outer loop
      vertex 0 179 152
      vertex 0 0 0
      vertex 0 0 152
    endloop
  endfacet
  facet normal 0 0 1
    outer loop
      vertex 180 179 152
      vertex 175.585 172 152
      vertex 180 0 152
    endloop
  endfacet
  facet normal 0 0 1
    outer loop
      vertex 180 179 152
      vertex 175.412 172.531 152
      vertex 175.585 172 152
    endloop
  endfacet
  facet normal 0 0 1
    outer loop
      vertex 180 179 152
      vertex 175.091 173.519 152
      vertex 175.412 172.531 152
    endloop
  endfacet
  facet normal 0 0 1
    outer loop
      vertex 180 179 152
      vertex 174.25 174.13 152
      vertex 175.091 173.519 152
    endloop
  endfacet
  facet normal 0 0 1
    outer loop
      vertex 180 179 152
      vertex 173.799 174.458 152
      vertex 174.25 174.13 152
    endloop
  endfacet
  facet normal 0 0 1
    outer loop
      vertex 180 179 152
      vertex 95.2013 174.458 152
      vertex 173.799 174.458 152
    endloop
  endfacet
  facet normal -0 0 1
    outer loop
      vertex 86.091 173.519 152
      vertex 93.7366 172.989 152
      vertex 93.909 173.519 152
    endloop
  endfacet
  facet normal 0 0 1
    outer loop
      vertex 93.4154 172 152
      vertex 86.5846 172 152
      vertex 93.4154 7 152
    endloop
  endfacet
  facet normal 0 0 1
    outer loop
      vertex 93.7366 172.989 152
      vertex 86.4123 172.531 152
      vertex 93.4154 172 152
    endloop
  endfacet
  facet normal 0 0 1
    outer loop
      vertex 86.091 173.519 152
      vertex 93.909 173.519 152
      vertex 94.3603 173.847 152
    endloop
  endfacet
  facet normal -0 0 1
    outer loop
      vertex 85.25 174.13 152
      vertex 94.3603 173.847 152
      vertex 95.2013 174.458 152
    endloop
  endfacet
  facet normal 0 0 1
    outer loop
      vertex 93.4154 172 152
      vertex 86.4123 172.531 152
      vertex 86.5846 172 152
    endloop
  endfacet
  facet normal 0 0 1
    outer loop
      vertex 93.7366 172.989 152
      vertex 86.091 173.519 152
      vertex 86.4123 172.531 152
    endloop
  endfacet
  facet normal 0 0 1
    outer loop
      vertex 94.3603 173.847 152
      vertex 85.25 174.13 152
      vertex 86.091 173.519 152
    endloop
  endfacet
  facet normal 0 0 1
    outer loop
      vertex 84.7987 174.458 152
      vertex 95.2013 174.458 152
      vertex 180 179 152
    endloop
  endfacet
  facet normal 0 0 1
    outer loop
      vertex 95.2013 174.458 152
      vertex 84.7987 174.458 152
      vertex 85.25 174.13 152
    endloop
  endfacet
  facet normal -0 0 1
    outer loop
      vertex 0 179 152
      vertex 84.7987 174.458 152
      vertex 180 179 152
    endloop
  endfacet
  facet normal 0 0 1
    outer loop
      vertex 4.41536 172 152
      vertex 0 179 152
      vertex 4.41536 7 152
    endloop
  endfacet
  facet normal 0 0 1
    outer loop
      vertex 4.7366 172.989 152
      vertex 0 179 152
      vertex 4.41536 172 152
    endloop
  endfacet
  facet normal 0 0 1
    outer loop
      vertex 4.90898 173.519 152
      vertex 0 179 152
      vertex 4.7366 172.989 152
    endloop
  endfacet
  facet normal 0 0 1
    outer loop
      vertex 5.36028 173.847 152
      vertex 0 179 152
      vertex 4.90898 173.519 152
    endloop
  endfacet
  facet normal 0 0 1
    outer loop
      vertex 6.2013 174.458 152
      vertex 0 179 152
      vertex 5.36028 173.847 152
    endloop
  endfacet
  facet normal 0 0 1
    outer loop
      vertex 84.7987 174.458 152
      vertex 0 179 152
      vertex 6.2013 174.458 152
    endloop
  endfacet
  facet normal -0 0 1
    outer loop
      vertex 175.585 7 152
      vertex 180 0 152
      vertex 175.585 172 152
    endloop
  endfacet
  facet normal -0 0 1
    outer loop
      vertex 175.263 6.01132 152
      vertex 180 0 152
      vertex 175.585 7 152
    endloop
  endfacet
  facet normal -0 0 1
    outer loop
      vertex 175.091 5.48079 152
      vertex 180 0 152
      vertex 175.263 6.01132 152
    endloop
  endfacet
  facet normal -0 0 1
    outer loop
      vertex 174.64 5.1529 152
      vertex 180 0 152
      vertex 175.091 5.48079 152
    endloop
  endfacet
  facet normal -0 0 1
    outer loop
      vertex 173.799 4.54186 152
      vertex 180 0 152
      vertex 174.64 5.1529 152
    endloop
  endfacet
  facet normal -0 0 1
    outer loop
      vertex 95.2013 4.54186 152
      vertex 180 0 152
      vertex 173.799 4.54186 152
    endloop
  endfacet
  facet normal 0 0 1
    outer loop
      vertex 86.5846 7 152
      vertex 93.4154 7 152
      vertex 86.5846 172 152
    endloop
  endfacet
  facet normal -0 0 1
    outer loop
      vertex 86.5846 7 152
      vertex 93.5877 6.46946 152
      vertex 93.4154 7 152
    endloop
  endfacet
  facet normal 0 0 1
    outer loop
      vertex 86.2634 6.01132 152
      vertex 93.5877 6.46946 152
      vertex 86.5846 7 152
    endloop
  endfacet
  facet normal 0 0 1
    outer loop
      vertex 93.5877 6.46946 152
      vertex 86.2634 6.01132 152
      vertex 93.909 5.48079 152
    endloop
  endfacet
  facet normal 0 0 1
    outer loop
      vertex 86.091 5.48079 152
      vertex 93.909 5.48079 152
      vertex 86.2634 6.01132 152
    endloop
  endfacet
  facet normal 0 0 1
    outer loop
      vertex 85.6397 5.1529 152
      vertex 93.909 5.48079 152
      vertex 86.091 5.48079 152
    endloop
  endfacet
  facet normal 0 0 1
    outer loop
      vertex 93.909 5.48079 152
      vertex 85.6397 5.1529 152
      vertex 94.75 4.86975 152
    endloop
  endfacet
  facet normal 0 0 1
    outer loop
      vertex 84.7987 4.54186 152
      vertex 94.75 4.86975 152
      vertex 85.6397 5.1529 152
    endloop
  endfacet
  facet normal 0 0 1
    outer loop
      vertex 94.75 4.86975 152
      vertex 84.7987 4.54186 152
      vertex 95.2013 4.54186 152
    endloop
  endfacet
  facet normal -0 0 1
    outer loop
      vertex 84.7987 4.54186 152
      vertex 180 0 152
      vertex 95.2013 4.54186 152
    endloop
  endfacet
  facet normal 0 0 1
    outer loop
      vertex 0 0 152
      vertex 84.7987 4.54186 152
      vertex 6.2013 4.54186 152
    endloop
  endfacet
  facet normal 0 0 1
    outer loop
      vertex 84.7987 4.54186 152
      vertex 0 0 152
      vertex 180 0 152
    endloop
  endfacet
  facet normal 0 0 1
    outer loop
      vertex 5.75 4.86975 152
      vertex 0 0 152
      vertex 6.2013 4.54186 152
    endloop
  endfacet
  facet normal 0 0 1
    outer loop
      vertex 4.90898 5.48079 152
      vertex 0 0 152
      vertex 5.75 4.86975 152
    endloop
  endfacet
  facet normal 0 0 1
    outer loop
      vertex 4.58774 6.46946 152
      vertex 0 0 152
      vertex 4.90898 5.48079 152
    endloop
  endfacet
  facet normal 0 0 1
    outer loop
      vertex 4.41536 7 152
      vertex 0 0 152
      vertex 4.58774 6.46946 152
    endloop
  endfacet
  facet normal 0 0 1
    outer loop
      vertex 0 0 152
      vertex 4.41536 7 152
      vertex 0 179 152
    endloop
  endfacet
  facet normal 1 -0 0
    outer loop
      vertex 180 0 152
      vertex 180 179 0
      vertex 180 179 152
    endloop
  endfacet
  facet normal 1 0 0
    outer loop
      vertex 180 179 0
      vertex 180 0 152
      vertex 180 0 0
    endloop
  endfacet
  facet normal 0 0 -1
    outer loop
      vertex 0 0 0
      vertex 180 179 0
      vertex 180 0 0
    endloop
  endfacet
  facet normal -0 0 -1
    outer loop
      vertex 180 179 0
      vertex 0 0 0
      vertex 0 179 0
    endloop
  endfacet
  facet normal 0 -1 0
    outer loop
      vertex 0 0 0
      vertex 180 0 152
      vertex 0 0 152
    endloop
  endfacet
  facet normal 0 -1 -0
    outer loop
      vertex 180 0 152
      vertex 0 0 0
      vertex 180 0 0
    endloop
  endfacet
  facet normal 0 1 -0
    outer loop
      vertex 180 179 0
      vertex 0 179 152
      vertex 180 179 152
    endloop
  endfacet
  facet normal 0 1 0
    outer loop
      vertex 0 179 152
      vertex 180 179 0
      vertex 0 179 0
    endloop
  endfacet
  facet normal 0 -0.108119 0.994138
    outer loop
      vertex 89 89.4347 21.2104
      vertex 91 87.5 21
      vertex 91 89.4347 21.2104
    endloop
  endfacet
  facet normal 0 -0.108119 0.994138
    outer loop
      vertex 91 87.5 21
      vertex 89 89.4347 21.2104
      vertex 89 87.5 21
    endloop
  endfacet
  facet normal 0 -0.214972 -0.97662
    outer loop
      vertex 89 88.4731 38.9472
      vertex 91 90.3737 38.5289
      vertex 91 88.4731 38.9472
    endloop
  endfacet
  facet normal -0 -0.214972 -0.97662
    outer loop
      vertex 91 90.3737 38.5289
      vertex 89 88.4731 38.9472
      vertex 89 90.3737 38.5289
    endloop
  endfacet
  facet normal 0 -0.515554 0.856857
    outer loop
      vertex 89 92.9466 22.8352
      vertex 91 91.279 21.8318
      vertex 91 92.9466 22.8352
    endloop
  endfacet
  facet normal 0 -0.515554 0.856857
    outer loop
      vertex 91 91.279 21.8318
      vertex 89 92.9466 22.8352
      vertex 89 91.279 21.8318
    endloop
  endfacet
  facet normal 0 -0.319302 0.947653
    outer loop
      vertex 89 91.279 21.8318
      vertex 91 89.4347 21.2104
      vertex 91 91.279 21.8318
    endloop
  endfacet
  facet normal 0 -0.319302 0.947653
    outer loop
      vertex 91 89.4347 21.2104
      vertex 89 91.279 21.8318
      vertex 89 89.4347 21.2104
    endloop
  endfacet
  facet normal 0 -0.986827 0.161781
    outer loop
      vertex 89 96.172 27.5922
      vertex 91 96.4868 29.5127
      vertex 89 96.4868 29.5127
    endloop
  endfacet
  facet normal 0 -0.986827 0.161781
    outer loop
      vertex 91 96.4868 29.5127
      vertex 89 96.172 27.5922
      vertex 91 96.172 27.5922
    endloop
  endfacet
  facet normal 0 -0.928976 0.37014
    outer loop
      vertex 89 95.4516 25.7843
      vertex 91 96.172 27.5922
      vertex 89 96.172 27.5922
    endloop
  endfacet
  facet normal 0 -0.928976 0.37014
    outer loop
      vertex 91 96.172 27.5922
      vertex 89 95.4516 25.7843
      vertex 91 95.4516 25.7843
    endloop
  endfacet
  facet normal 0 -0.96355 -0.267527
    outer loop
      vertex 89 96.3814 31.456
      vertex 91 95.8608 33.3312
      vertex 89 95.8608 33.3312
    endloop
  endfacet
  facet normal 0 -0.96355 -0.267527
    outer loop
      vertex 91 95.8608 33.3312
      vertex 89 96.3814 31.456
      vertex 91 96.3814 31.456
    endloop
  endfacet
  facet normal 0 -0.419888 -0.907576
    outer loop
      vertex 89 90.3737 38.5289
      vertex 91 92.14 37.7117
      vertex 91 90.3737 38.5289
    endloop
  endfacet
  facet normal -0 -0.419888 -0.907576
    outer loop
      vertex 91 92.14 37.7117
      vertex 89 90.3737 38.5289
      vertex 89 92.14 37.7117
    endloop
  endfacet
  facet normal 0 0.928976 0.37014
    outer loop
      vertex 91 79.5484 25.7843
      vertex 89 78.828 27.5922
      vertex 91 78.828 27.5922
    endloop
  endfacet
  facet normal 0 0.928976 0.37014
    outer loop
      vertex 89 78.828 27.5922
      vertex 91 79.5484 25.7843
      vertex 89 79.5484 25.7843
    endloop
  endfacet
  facet normal 0 -0.998533 -0.0541388
    outer loop
      vertex 89 96.4868 29.5127
      vertex 91 96.3814 31.456
      vertex 89 96.3814 31.456
    endloop
  endfacet
  facet normal 0 -0.998533 -0.0541388
    outer loop
      vertex 91 96.3814 31.456
      vertex 89 96.4868 29.5127
      vertex 91 96.4868 29.5127
    endloop
  endfacet
  facet normal 0 -0.82769 0.561186
    outer loop
      vertex 89 94.3595 24.1735
      vertex 91 95.4516 25.7843
      vertex 89 95.4516 25.7843
    endloop
  endfacet
  facet normal 0 -0.82769 0.561186
    outer loop
      vertex 91 95.4516 25.7843
      vertex 89 94.3595 24.1735
      vertex 91 94.3595 24.1735
    endloop
  endfacet
  facet normal 0 0 -1
    outer loop
      vertex 89 86.5269 38.9472
      vertex 91 88.4731 38.9472
      vertex 91 86.5269 38.9472
    endloop
  endfacet
  facet normal -0 0 -1
    outer loop
      vertex 91 88.4731 38.9472
      vertex 89 86.5269 38.9472
      vertex 89 88.4731 38.9472
    endloop
  endfacet
  facet normal 0 -0.605175 -0.796092
    outer loop
      vertex 89 92.14 37.7117
      vertex 91 93.6893 36.534
      vertex 91 92.14 37.7117
    endloop
  endfacet
  facet normal -0 -0.605175 -0.796092
    outer loop
      vertex 91 93.6893 36.534
      vertex 89 92.14 37.7117
      vertex 89 93.6893 36.534
    endloop
  endfacet
  facet normal 0 -0.883512 -0.468409
    outer loop
      vertex 89 95.8608 33.3312
      vertex 91 94.9492 35.0507
      vertex 89 94.9492 35.0507
    endloop
  endfacet
  facet normal 0 -0.883512 -0.468409
    outer loop
      vertex 91 94.9492 35.0507
      vertex 89 95.8608 33.3312
      vertex 91 95.8608 33.3312
    endloop
  endfacet
  facet normal 0 -0.762161 -0.647388
    outer loop
      vertex 89 94.9492 35.0507
      vertex 91 93.6893 36.534
      vertex 89 93.6893 36.534
    endloop
  endfacet
  facet normal 0 -0.762161 -0.647388
    outer loop
      vertex 91 93.6893 36.534
      vertex 89 94.9492 35.0507
      vertex 91 94.9492 35.0507
    endloop
  endfacet
  facet normal -0 0.319303 0.947653
    outer loop
      vertex 89 85.5653 21.2104
      vertex 91 83.721 21.8318
      vertex 91 85.5653 21.2104
    endloop
  endfacet
  facet normal 0 0.319303 0.947653
    outer loop
      vertex 91 83.721 21.8318
      vertex 89 85.5653 21.2104
      vertex 89 83.721 21.8318
    endloop
  endfacet
  facet normal 0 0.214971 -0.97662
    outer loop
      vertex 89 84.6263 38.5289
      vertex 91 86.5269 38.9472
      vertex 91 84.6263 38.5289
    endloop
  endfacet
  facet normal 0 0.214971 -0.97662
    outer loop
      vertex 91 86.5269 38.9472
      vertex 89 84.6263 38.5289
      vertex 89 86.5269 38.9472
    endloop
  endfacet
  facet normal -0 0.6877 0.725995
    outer loop
      vertex 89 82.0534 22.8352
      vertex 91 80.6405 24.1735
      vertex 91 82.0534 22.8352
    endloop
  endfacet
  facet normal 0 0.6877 0.725995
    outer loop
      vertex 91 80.6405 24.1735
      vertex 89 82.0534 22.8352
      vertex 89 80.6405 24.1735
    endloop
  endfacet
  facet normal -0 0.108119 0.994138
    outer loop
      vertex 89 87.5 21
      vertex 91 85.5653 21.2104
      vertex 91 87.5 21
    endloop
  endfacet
  facet normal 0 0.108119 0.994138
    outer loop
      vertex 91 85.5653 21.2104
      vertex 89 87.5 21
      vertex 89 85.5653 21.2104
    endloop
  endfacet
  facet normal 0 -0.687698 0.725997
    outer loop
      vertex 89 94.3595 24.1735
      vertex 91 92.9466 22.8352
      vertex 91 94.3595 24.1735
    endloop
  endfacet
  facet normal 0 -0.687698 0.725997
    outer loop
      vertex 91 92.9466 22.8352
      vertex 89 94.3595 24.1735
      vertex 89 92.9466 22.8352
    endloop
  endfacet
  facet normal 0 0.605175 -0.796092
    outer loop
      vertex 89 81.3107 36.534
      vertex 91 82.86 37.7117
      vertex 91 81.3107 36.534
    endloop
  endfacet
  facet normal 0 0.605175 -0.796092
    outer loop
      vertex 91 82.86 37.7117
      vertex 89 81.3107 36.534
      vertex 89 82.86 37.7117
    endloop
  endfacet
  facet normal 0 0.82769 0.561186
    outer loop
      vertex 91 80.6405 24.1735
      vertex 89 79.5484 25.7843
      vertex 91 79.5484 25.7843
    endloop
  endfacet
  facet normal 0 0.82769 0.561186
    outer loop
      vertex 89 79.5484 25.7843
      vertex 91 80.6405 24.1735
      vertex 89 80.6405 24.1735
    endloop
  endfacet
  facet normal 0 0.419889 -0.907575
    outer loop
      vertex 89 82.86 37.7117
      vertex 91 84.6263 38.5289
      vertex 91 82.86 37.7117
    endloop
  endfacet
  facet normal 0 0.419889 -0.907575
    outer loop
      vertex 91 84.6263 38.5289
      vertex 89 82.86 37.7117
      vertex 89 84.6263 38.5289
    endloop
  endfacet
  facet normal 0 0.762161 -0.647388
    outer loop
      vertex 91 80.0508 35.0507
      vertex 89 81.3107 36.534
      vertex 91 81.3107 36.534
    endloop
  endfacet
  facet normal 0 0.762161 -0.647388
    outer loop
      vertex 89 81.3107 36.534
      vertex 91 80.0508 35.0507
      vertex 89 80.0508 35.0507
    endloop
  endfacet
  facet normal 0 0.986827 0.161781
    outer loop
      vertex 91 78.828 27.5922
      vertex 89 78.5132 29.5127
      vertex 91 78.5132 29.5127
    endloop
  endfacet
  facet normal 0 0.986827 0.161781
    outer loop
      vertex 89 78.5132 29.5127
      vertex 91 78.828 27.5922
      vertex 89 78.828 27.5922
    endloop
  endfacet
  facet normal 0 0.998533 -0.0541388
    outer loop
      vertex 91 78.5132 29.5127
      vertex 89 78.6186 31.456
      vertex 91 78.6186 31.456
    endloop
  endfacet
  facet normal 0 0.998533 -0.0541388
    outer loop
      vertex 89 78.6186 31.456
      vertex 91 78.5132 29.5127
      vertex 89 78.5132 29.5127
    endloop
  endfacet
  facet normal -0 0.515553 0.856858
    outer loop
      vertex 89 83.721 21.8318
      vertex 91 82.0534 22.8352
      vertex 91 83.721 21.8318
    endloop
  endfacet
  facet normal 0 0.515553 0.856858
    outer loop
      vertex 91 82.0534 22.8352
      vertex 89 83.721 21.8318
      vertex 89 82.0534 22.8352
    endloop
  endfacet
  facet normal 0 0.96355 -0.267527
    outer loop
      vertex 91 78.6186 31.456
      vertex 89 79.1392 33.3312
      vertex 91 79.1392 33.3312
    endloop
  endfacet
  facet normal 0 0.96355 -0.267527
    outer loop
      vertex 89 79.1392 33.3312
      vertex 91 78.6186 31.456
      vertex 89 78.6186 31.456
    endloop
  endfacet
  facet normal 0 0.883512 -0.468409
    outer loop
      vertex 91 79.1392 33.3312
      vertex 89 80.0508 35.0507
      vertex 91 80.0508 35.0507
    endloop
  endfacet
  facet normal 0 0.883512 -0.468409
    outer loop
      vertex 89 80.0508 35.0507
      vertex 91 79.1392 33.3312
      vertex 89 79.1392 33.3312
    endloop
  endfacet
endsolid OpenSCAD_Model
