solid OpenSCAD_Model
  facet normal 1 -0 0
    outer loop
      vertex 1.15 1.15 151.15
      vertex 1.15 176.15 1.15
      vertex 1.15 176.15 151.15
    endloop
  endfacet
  facet normal 1 0 0
    outer loop
      vertex 1.15 176.15 1.15
      vertex 1.15 1.15 151.15
      vertex 1.15 1.15 1.15
    endloop
  endfacet
  facet normal -1 0 0
    outer loop
      vertex 88.15 106.396 31.986
      vertex 88.15 176.15 1.15
      vertex 88.15 106.396 28.014
    endloop
  endfacet
  facet normal -1 0 0
    outer loop
      vertex 88.15 176.15 1.15
      vertex 88.15 105.57 24.1287
      vertex 88.15 106.396 28.014
    endloop
  endfacet
  facet normal -1 0 0
    outer loop
      vertex 88.15 176.15 1.15
      vertex 88.15 104.855 22.523
      vertex 88.15 105.57 24.1287
    endloop
  endfacet
  facet normal -1 0 0
    outer loop
      vertex 88.15 176.15 1.15
      vertex 88.15 103.954 20.5
      vertex 88.15 104.855 22.523
    endloop
  endfacet
  facet normal -1 0 0
    outer loop
      vertex 88.15 176.15 1.15
      vertex 88.15 102.653 18.7085
      vertex 88.15 103.954 20.5
    endloop
  endfacet
  facet normal -1 0 0
    outer loop
      vertex 88.15 176.15 1.15
      vertex 88.15 101.62 17.2865
      vertex 88.15 102.653 18.7085
    endloop
  endfacet
  facet normal -1 0 0
    outer loop
      vertex 88.15 176.15 1.15
      vertex 88.15 98.6679 14.6287
      vertex 88.15 101.62 17.2865
    endloop
  endfacet
  facet normal -1 0 0
    outer loop
      vertex 88.15 176.15 1.15
      vertex 88.15 95.228 12.6426
      vertex 88.15 98.6679 14.6287
    endloop
  endfacet
  facet normal -1 0 0
    outer loop
      vertex 88.15 176.15 1.15
      vertex 88.15 91.4503 11.4152
      vertex 88.15 95.228 12.6426
    endloop
  endfacet
  facet normal -1 0 0
    outer loop
      vertex 88.15 176.15 1.15
      vertex 88.15 89.7023 11.2315
      vertex 88.15 91.4503 11.4152
    endloop
  endfacet
  facet normal -1 0 0
    outer loop
      vertex 88.15 176.15 1.15
      vertex 88.15 87.5 11
      vertex 88.15 89.7023 11.2315
    endloop
  endfacet
  facet normal -1 0 0
    outer loop
      vertex 88.15 1.15 1.15
      vertex 88.15 87.5 11
      vertex 88.15 176.15 1.15
    endloop
  endfacet
  facet normal -1 -0 0
    outer loop
      vertex 88.15 87.5 11
      vertex 88.15 1.15 1.15
      vertex 88.15 85.2977 11.2315
    endloop
  endfacet
  facet normal -1 0 0
    outer loop
      vertex 88.15 1.15 1.15
      vertex 88.15 70.1448 22.523
      vertex 88.15 71.0455 20.5
    endloop
  endfacet
  facet normal -1 -0 0
    outer loop
      vertex 88.15 68.6041 28.014
      vertex 88.15 1.15 1.15
      vertex 88.15 68.6041 31.986
    endloop
  endfacet
  facet normal -1 -0 0
    outer loop
      vertex 88.15 69.4299 24.1287
      vertex 88.15 1.15 1.15
      vertex 88.15 68.6041 28.014
    endloop
  endfacet
  facet normal -1 -0 0
    outer loop
      vertex 88.15 70.1448 22.523
      vertex 88.15 1.15 1.15
      vertex 88.15 69.4299 24.1287
    endloop
  endfacet
  facet normal -1 -0 0
    outer loop
      vertex 88.15 72.3471 18.7085
      vertex 88.15 1.15 1.15
      vertex 88.15 71.0455 20.5
    endloop
  endfacet
  facet normal -1 -0 0
    outer loop
      vertex 88.15 73.3802 17.2865
      vertex 88.15 1.15 1.15
      vertex 88.15 72.3471 18.7085
    endloop
  endfacet
  facet normal -1 -0 0
    outer loop
      vertex 88.15 76.3321 14.6287
      vertex 88.15 1.15 1.15
      vertex 88.15 73.3802 17.2865
    endloop
  endfacet
  facet normal -1 -0 0
    outer loop
      vertex 88.15 79.772 12.6426
      vertex 88.15 1.15 1.15
      vertex 88.15 76.3321 14.6287
    endloop
  endfacet
  facet normal -1 -0 0
    outer loop
      vertex 88.15 83.5497 11.4152
      vertex 88.15 1.15 1.15
      vertex 88.15 79.772 12.6426
    endloop
  endfacet
  facet normal -1 -0 0
    outer loop
      vertex 88.15 85.2977 11.2315
      vertex 88.15 1.15 1.15
      vertex 88.15 83.5497 11.4152
    endloop
  endfacet
  facet normal -1 0 0
    outer loop
      vertex 88.15 105.57 35.8713
      vertex 88.15 176.15 1.15
      vertex 88.15 106.396 31.986
    endloop
  endfacet
  facet normal -1 0 0
    outer loop
      vertex 88.15 104.669 37.8943
      vertex 88.15 176.15 1.15
      vertex 88.15 105.57 35.8713
    endloop
  endfacet
  facet normal -1 0 0
    outer loop
      vertex 88.15 103.954 39.5
      vertex 88.15 176.15 1.15
      vertex 88.15 104.669 37.8943
    endloop
  endfacet
  facet normal -1 0 0
    outer loop
      vertex 88.15 176.15 1.15
      vertex 88.15 103.954 39.5
      vertex 88.15 176.15 151.15
    endloop
  endfacet
  facet normal -1 0 0
    outer loop
      vertex 88.15 102.921 40.922
      vertex 88.15 176.15 151.15
      vertex 88.15 103.954 39.5
    endloop
  endfacet
  facet normal -1 0 0
    outer loop
      vertex 88.15 101.62 42.7135
      vertex 88.15 176.15 151.15
      vertex 88.15 102.921 40.922
    endloop
  endfacet
  facet normal -1 0 0
    outer loop
      vertex 88.15 98.6679 45.3713
      vertex 88.15 176.15 151.15
      vertex 88.15 101.62 42.7135
    endloop
  endfacet
  facet normal -1 0 0
    outer loop
      vertex 88.15 95.228 47.3574
      vertex 88.15 176.15 151.15
      vertex 88.15 98.6679 45.3713
    endloop
  endfacet
  facet normal -1 0 0
    outer loop
      vertex 88.15 91.4503 48.5848
      vertex 88.15 176.15 151.15
      vertex 88.15 95.228 47.3574
    endloop
  endfacet
  facet normal -1 0 0
    outer loop
      vertex 88.15 87.5 49
      vertex 88.15 176.15 151.15
      vertex 88.15 91.4503 48.5848
    endloop
  endfacet
  facet normal -1 0 0
    outer loop
      vertex 88.15 1.15 151.15
      vertex 88.15 87.5 49
      vertex 88.15 83.5497 48.5848
    endloop
  endfacet
  facet normal -1 0 0
    outer loop
      vertex 88.15 1.15 151.15
      vertex 88.15 83.5497 48.5848
      vertex 88.15 79.772 47.3574
    endloop
  endfacet
  facet normal -1 0 0
    outer loop
      vertex 88.15 1.15 151.15
      vertex 88.15 79.772 47.3574
      vertex 88.15 76.3321 45.3713
    endloop
  endfacet
  facet normal -1 0 0
    outer loop
      vertex 88.15 1.15 151.15
      vertex 88.15 76.3321 45.3713
      vertex 88.15 73.3802 42.7135
    endloop
  endfacet
  facet normal -1 0 0
    outer loop
      vertex 88.15 1.15 1.15
      vertex 88.15 69.4299 35.8713
      vertex 88.15 68.6041 31.986
    endloop
  endfacet
  facet normal -1 0 0
    outer loop
      vertex 88.15 1.15 1.15
      vertex 88.15 71.0455 39.5
      vertex 88.15 69.4299 35.8713
    endloop
  endfacet
  facet normal -1 0 0
    outer loop
      vertex 88.15 1.15 151.15
      vertex 88.15 71.0455 39.5
      vertex 88.15 1.15 1.15
    endloop
  endfacet
  facet normal -1 0 0
    outer loop
      vertex 88.15 71.0455 39.5
      vertex 88.15 1.15 151.15
      vertex 88.15 73.3802 42.7135
    endloop
  endfacet
  facet normal -1 0 0
    outer loop
      vertex 88.15 87.5 49
      vertex 88.15 1.15 151.15
      vertex 88.15 176.15 151.15
    endloop
  endfacet
  facet normal -0 0 1
    outer loop
      vertex 1.15 176.15 1.15
      vertex 88.15 1.15 1.15
      vertex 88.15 176.15 1.15
    endloop
  endfacet
  facet normal 0 0 1
    outer loop
      vertex 88.15 1.15 1.15
      vertex 1.15 176.15 1.15
      vertex 1.15 1.15 1.15
    endloop
  endfacet
  facet normal 0 1 -0
    outer loop
      vertex 88.15 1.15 1.15
      vertex 1.15 1.15 151.15
      vertex 88.15 1.15 151.15
    endloop
  endfacet
  facet normal 0 1 0
    outer loop
      vertex 1.15 1.15 151.15
      vertex 88.15 1.15 1.15
      vertex 1.15 1.15 1.15
    endloop
  endfacet
  facet normal 0 -1 0
    outer loop
      vertex 1.15 176.15 1.15
      vertex 88.15 176.15 151.15
      vertex 1.15 176.15 151.15
    endloop
  endfacet
  facet normal 0 -1 -0
    outer loop
      vertex 88.15 176.15 151.15
      vertex 1.15 176.15 1.15
      vertex 88.15 176.15 1.15
    endloop
  endfacet
  facet normal 1 -0 0
    outer loop
      vertex 89.3 103.954 39.5
      vertex 89.3 176.15 1.15
      vertex 89.3 176.15 151.15
    endloop
  endfacet
  facet normal 1 0 0
    outer loop
      vertex 89.3 176.15 1.15
      vertex 89.3 105.57 35.8713
      vertex 89.3 106.396 31.986
    endloop
  endfacet
  facet normal 1 0 0
    outer loop
      vertex 89.3 176.15 1.15
      vertex 89.3 104.576 38.103
      vertex 89.3 105.57 35.8713
    endloop
  endfacet
  facet normal 1 0 0
    outer loop
      vertex 89.3 176.15 1.15
      vertex 89.3 103.954 39.5
      vertex 89.3 104.576 38.103
    endloop
  endfacet
  facet normal 1 0 0
    outer loop
      vertex 89.3 176.15 151.15
      vertex 89.3 103.056 40.7372
      vertex 89.3 103.954 39.5
    endloop
  endfacet
  facet normal 1 0 0
    outer loop
      vertex 89.3 176.15 151.15
      vertex 89.3 101.62 42.7135
      vertex 89.3 103.056 40.7372
    endloop
  endfacet
  facet normal 1 0 0
    outer loop
      vertex 89.3 176.15 151.15
      vertex 89.3 98.6679 45.3713
      vertex 89.3 101.62 42.7135
    endloop
  endfacet
  facet normal 1 0 0
    outer loop
      vertex 89.3 176.15 151.15
      vertex 89.3 95.228 47.3574
      vertex 89.3 98.6679 45.3713
    endloop
  endfacet
  facet normal 1 0 0
    outer loop
      vertex 89.3 176.15 151.15
      vertex 89.3 91.4503 48.5848
      vertex 89.3 95.228 47.3574
    endloop
  endfacet
  facet normal 1 0 0
    outer loop
      vertex 89.3 176.15 151.15
      vertex 89.3 87.5 49
      vertex 89.3 91.4503 48.5848
    endloop
  endfacet
  facet normal 1 -0 0
    outer loop
      vertex 89.3 1.15 151.15
      vertex 89.3 87.5 49
      vertex 89.3 176.15 151.15
    endloop
  endfacet
  facet normal 1 0 0
    outer loop
      vertex 89.3 87.5 49
      vertex 89.3 1.15 151.15
      vertex 89.3 83.5497 48.5848
    endloop
  endfacet
  facet normal 1 0 0
    outer loop
      vertex 89.3 83.5497 48.5848
      vertex 89.3 1.15 151.15
      vertex 89.3 79.772 47.3574
    endloop
  endfacet
  facet normal 1 0 0
    outer loop
      vertex 89.3 79.772 47.3574
      vertex 89.3 1.15 151.15
      vertex 89.3 76.3321 45.3713
    endloop
  endfacet
  facet normal 1 0 0
    outer loop
      vertex 89.3 69.4299 35.8713
      vertex 89.3 1.15 1.15
      vertex 89.3 68.6041 31.986
    endloop
  endfacet
  facet normal 1 0 0
    outer loop
      vertex 89.3 71.0455 39.5
      vertex 89.3 1.15 1.15
      vertex 89.3 69.4299 35.8713
    endloop
  endfacet
  facet normal 1 0 0
    outer loop
      vertex 89.3 1.15 1.15
      vertex 89.3 71.0455 39.5
      vertex 89.3 1.15 151.15
    endloop
  endfacet
  facet normal 1 0 0
    outer loop
      vertex 89.3 73.3802 42.7135
      vertex 89.3 1.15 151.15
      vertex 89.3 71.0455 39.5
    endloop
  endfacet
  facet normal 1 0 0
    outer loop
      vertex 89.3 76.3321 45.3713
      vertex 89.3 1.15 151.15
      vertex 89.3 73.3802 42.7135
    endloop
  endfacet
  facet normal 1 -0 0
    outer loop
      vertex 89.3 106.396 28.014
      vertex 89.3 176.15 1.15
      vertex 89.3 106.396 31.986
    endloop
  endfacet
  facet normal 1 -0 0
    outer loop
      vertex 89.3 105.57 24.1287
      vertex 89.3 176.15 1.15
      vertex 89.3 106.396 28.014
    endloop
  endfacet
  facet normal 1 -0 0
    outer loop
      vertex 89.3 104.948 22.7316
      vertex 89.3 176.15 1.15
      vertex 89.3 105.57 24.1287
    endloop
  endfacet
  facet normal 1 -0 0
    outer loop
      vertex 89.3 103.954 20.5
      vertex 89.3 176.15 1.15
      vertex 89.3 104.948 22.7316
    endloop
  endfacet
  facet normal 1 -0 0
    outer loop
      vertex 89.3 102.519 18.5237
      vertex 89.3 176.15 1.15
      vertex 89.3 103.954 20.5
    endloop
  endfacet
  facet normal 1 -0 0
    outer loop
      vertex 89.3 101.62 17.2865
      vertex 89.3 176.15 1.15
      vertex 89.3 102.519 18.5237
    endloop
  endfacet
  facet normal 1 -0 0
    outer loop
      vertex 89.3 98.6679 14.6287
      vertex 89.3 176.15 1.15
      vertex 89.3 101.62 17.2865
    endloop
  endfacet
  facet normal 1 -0 0
    outer loop
      vertex 89.3 95.228 12.6426
      vertex 89.3 176.15 1.15
      vertex 89.3 98.6679 14.6287
    endloop
  endfacet
  facet normal 1 -0 0
    outer loop
      vertex 89.3 91.4503 11.4152
      vertex 89.3 176.15 1.15
      vertex 89.3 95.228 12.6426
    endloop
  endfacet
  facet normal 1 -0 0
    outer loop
      vertex 89.3 89.9295 11.2553
      vertex 89.3 176.15 1.15
      vertex 89.3 91.4503 11.4152
    endloop
  endfacet
  facet normal 1 -0 0
    outer loop
      vertex 89.3 87.5 11
      vertex 89.3 176.15 1.15
      vertex 89.3 89.9295 11.2553
    endloop
  endfacet
  facet normal 1 0 0
    outer loop
      vertex 89.3 1.15 1.15
      vertex 89.3 87.5 11
      vertex 89.3 85.0705 11.2553
    endloop
  endfacet
  facet normal 1 0 0
    outer loop
      vertex 89.3 1.15 1.15
      vertex 89.3 85.0705 11.2553
      vertex 89.3 83.5497 11.4152
    endloop
  endfacet
  facet normal 1 0 0
    outer loop
      vertex 89.3 68.6041 31.986
      vertex 89.3 1.15 1.15
      vertex 89.3 68.6041 28.014
    endloop
  endfacet
  facet normal 1 0 0
    outer loop
      vertex 89.3 68.6041 28.014
      vertex 89.3 1.15 1.15
      vertex 89.3 69.4299 24.1287
    endloop
  endfacet
  facet normal 1 0 0
    outer loop
      vertex 89.3 69.4299 24.1287
      vertex 89.3 1.15 1.15
      vertex 89.3 70.0519 22.7316
    endloop
  endfacet
  facet normal 1 0 0
    outer loop
      vertex 89.3 87.5 11
      vertex 89.3 1.15 1.15
      vertex 89.3 176.15 1.15
    endloop
  endfacet
  facet normal 1 0 0
    outer loop
      vertex 89.3 79.772 12.6426
      vertex 89.3 1.15 1.15
      vertex 89.3 83.5497 11.4152
    endloop
  endfacet
  facet normal 1 0 0
    outer loop
      vertex 89.3 76.3321 14.6287
      vertex 89.3 1.15 1.15
      vertex 89.3 79.772 12.6426
    endloop
  endfacet
  facet normal 1 0 0
    outer loop
      vertex 89.3 73.3802 17.2865
      vertex 89.3 1.15 1.15
      vertex 89.3 76.3321 14.6287
    endloop
  endfacet
  facet normal 1 0 0
    outer loop
      vertex 89.3 72.4814 18.5237
      vertex 89.3 1.15 1.15
      vertex 89.3 73.3802 17.2865
    endloop
  endfacet
  facet normal 1 0 0
    outer loop
      vertex 89.3 71.0455 20.5
      vertex 89.3 1.15 1.15
      vertex 89.3 72.4814 18.5237
    endloop
  endfacet
  facet normal 1 0 0
    outer loop
      vertex 89.3 70.0519 22.7316
      vertex 89.3 1.15 1.15
      vertex 89.3 71.0455 20.5
    endloop
  endfacet
  facet normal -1 0 0
    outer loop
      vertex 176.3 1.15 1.15
      vertex 176.3 176.15 151.15
      vertex 176.3 176.15 1.15
    endloop
  endfacet
  facet normal -1 -0 0
    outer loop
      vertex 176.3 176.15 151.15
      vertex 176.3 1.15 1.15
      vertex 176.3 1.15 151.15
    endloop
  endfacet
  facet normal 0 -1 0
    outer loop
      vertex 89.3 176.15 1.15
      vertex 176.3 176.15 151.15
      vertex 89.3 176.15 151.15
    endloop
  endfacet
  facet normal 0 -1 -0
    outer loop
      vertex 176.3 176.15 151.15
      vertex 89.3 176.15 1.15
      vertex 176.3 176.15 1.15
    endloop
  endfacet
  facet normal -0 0 1
    outer loop
      vertex 89.3 176.15 1.15
      vertex 176.3 1.15 1.15
      vertex 176.3 176.15 1.15
    endloop
  endfacet
  facet normal 0 0 1
    outer loop
      vertex 176.3 1.15 1.15
      vertex 89.3 176.15 1.15
      vertex 89.3 1.15 1.15
    endloop
  endfacet
  facet normal 0 1 -0
    outer loop
      vertex 176.3 1.15 1.15
      vertex 89.3 1.15 151.15
      vertex 176.3 1.15 151.15
    endloop
  endfacet
  facet normal 0 1 0
    outer loop
      vertex 89.3 1.15 151.15
      vertex 176.3 1.15 1.15
      vertex 89.3 1.15 1.15
    endloop
  endfacet
  facet normal -1 0 0
    outer loop
      vertex 0 0 0
      vertex 0 177.3 151.15
      vertex 0 177.3 0
    endloop
  endfacet
  facet normal -1 -0 0
    outer loop
      vertex 0 177.3 151.15
      vertex 0 0 0
      vertex 0 0 151.15
    endloop
  endfacet
  facet normal 0 0 1
    outer loop
      vertex 177.45 177.3 151.15
      vertex 176.3 176.15 151.15
      vertex 177.45 0 151.15
    endloop
  endfacet
  facet normal 0 0 1
    outer loop
      vertex 177.45 177.3 151.15
      vertex 89.3 176.15 151.15
      vertex 176.3 176.15 151.15
    endloop
  endfacet
  facet normal 0 0 1
    outer loop
      vertex 89.3 176.15 151.15
      vertex 88.15 176.15 151.15
      vertex 89.3 1.15 151.15
    endloop
  endfacet
  facet normal 0 0 1
    outer loop
      vertex 177.45 177.3 151.15
      vertex 88.15 176.15 151.15
      vertex 89.3 176.15 151.15
    endloop
  endfacet
  facet normal -0 0 1
    outer loop
      vertex 0 177.3 151.15
      vertex 88.15 176.15 151.15
      vertex 177.45 177.3 151.15
    endloop
  endfacet
  facet normal 0 0 1
    outer loop
      vertex 1.15 176.15 151.15
      vertex 0 177.3 151.15
      vertex 1.15 1.15 151.15
    endloop
  endfacet
  facet normal 0 0 1
    outer loop
      vertex 88.15 176.15 151.15
      vertex 0 177.3 151.15
      vertex 1.15 176.15 151.15
    endloop
  endfacet
  facet normal -0 0 1
    outer loop
      vertex 176.3 1.15 151.15
      vertex 177.45 0 151.15
      vertex 176.3 176.15 151.15
    endloop
  endfacet
  facet normal -0 0 1
    outer loop
      vertex 89.3 1.15 151.15
      vertex 177.45 0 151.15
      vertex 176.3 1.15 151.15
    endloop
  endfacet
  facet normal 0 0 1
    outer loop
      vertex 88.15 1.15 151.15
      vertex 89.3 1.15 151.15
      vertex 88.15 176.15 151.15
    endloop
  endfacet
  facet normal -0 0 1
    outer loop
      vertex 88.15 1.15 151.15
      vertex 177.45 0 151.15
      vertex 89.3 1.15 151.15
    endloop
  endfacet
  facet normal 0 0 1
    outer loop
      vertex 0 0 151.15
      vertex 88.15 1.15 151.15
      vertex 1.15 1.15 151.15
    endloop
  endfacet
  facet normal 0 0 1
    outer loop
      vertex 88.15 1.15 151.15
      vertex 0 0 151.15
      vertex 177.45 0 151.15
    endloop
  endfacet
  facet normal 0 0 1
    outer loop
      vertex 0 0 151.15
      vertex 1.15 1.15 151.15
      vertex 0 177.3 151.15
    endloop
  endfacet
  facet normal 1 -0 0
    outer loop
      vertex 177.45 0 151.15
      vertex 177.45 177.3 0
      vertex 177.45 177.3 151.15
    endloop
  endfacet
  facet normal 1 0 0
    outer loop
      vertex 177.45 177.3 0
      vertex 177.45 0 151.15
      vertex 177.45 0 0
    endloop
  endfacet
  facet normal 0 0 -1
    outer loop
      vertex 0 0 0
      vertex 177.45 177.3 0
      vertex 177.45 0 0
    endloop
  endfacet
  facet normal -0 0 -1
    outer loop
      vertex 177.45 177.3 0
      vertex 0 0 0
      vertex 0 177.3 0
    endloop
  endfacet
  facet normal 0 -1 0
    outer loop
      vertex 0 0 0
      vertex 177.45 0 151.15
      vertex 0 0 151.15
    endloop
  endfacet
  facet normal 0 -1 -0
    outer loop
      vertex 177.45 0 151.15
      vertex 0 0 0
      vertex 177.45 0 0
    endloop
  endfacet
  facet normal 0 1 -0
    outer loop
      vertex 177.45 177.3 0
      vertex 0 177.3 151.15
      vertex 177.45 177.3 151.15
    endloop
  endfacet
  facet normal 0 1 0
    outer loop
      vertex 0 177.3 151.15
      vertex 177.45 177.3 0
      vertex 0 177.3 0
    endloop
  endfacet
  facet normal 0 -0.104529 0.994522
    outer loop
      vertex 88.15 91.4503 11.4152
      vertex 89.3 89.9295 11.2553
      vertex 89.3 91.4503 11.4152
    endloop
  endfacet
  facet normal 1.00016e-06 -0.104529 0.994522
    outer loop
      vertex 89.3 89.9295 11.2553
      vertex 88.15 91.4503 11.4152
      vertex 88.15 89.7023 11.2315
    endloop
  endfacet
  facet normal 8.49296e-07 -0.104528 0.994522
    outer loop
      vertex 88.15 89.7023 11.2315
      vertex 89.3 87.5 11
      vertex 89.3 89.9295 11.2553
    endloop
  endfacet
  facet normal 0 -0.104528 0.994522
    outer loop
      vertex 89.3 87.5 11
      vertex 88.15 89.7023 11.2315
      vertex 88.15 87.5 11
    endloop
  endfacet
  facet normal 0 -0.309017 -0.951056
    outer loop
      vertex 88.15 91.4503 48.5848
      vertex 89.3 95.228 47.3574
      vertex 89.3 91.4503 48.5848
    endloop
  endfacet
  facet normal -0 -0.309017 -0.951056
    outer loop
      vertex 89.3 95.228 47.3574
      vertex 88.15 91.4503 48.5848
      vertex 88.15 95.228 47.3574
    endloop
  endfacet
  facet normal 0 0.913545 -0.406737
    outer loop
      vertex 89.3 69.4299 35.8713
      vertex 88.15 71.0455 39.5
      vertex 89.3 71.0455 39.5
    endloop
  endfacet
  facet normal 0 0.913545 -0.406737
    outer loop
      vertex 88.15 71.0455 39.5
      vertex 89.3 69.4299 35.8713
      vertex 88.15 69.4299 35.8713
    endloop
  endfacet
  facet normal 0 -0.809017 0.587785
    outer loop
      vertex 88.15 102.653 18.7085
      vertex 89.3 103.954 20.5
      vertex 88.15 103.954 20.5
    endloop
  endfacet
  facet normal -2.7527e-07 -0.809017 0.587785
    outer loop
      vertex 89.3 103.954 20.5
      vertex 88.15 102.653 18.7085
      vertex 89.3 102.519 18.5237
    endloop
  endfacet
  facet normal 0 -0.978148 0.207912
    outer loop
      vertex 88.15 105.57 24.1287
      vertex 89.3 106.396 28.014
      vertex 88.15 106.396 28.014
    endloop
  endfacet
  facet normal 0 -0.978148 0.207912
    outer loop
      vertex 89.3 106.396 28.014
      vertex 88.15 105.57 24.1287
      vertex 89.3 105.57 24.1287
    endloop
  endfacet
  facet normal 0 -0.913546 -0.406736
    outer loop
      vertex 88.15 103.954 39.5
      vertex 89.3 104.576 38.103
      vertex 89.3 103.954 39.5
    endloop
  endfacet
  facet normal 4.75384e-07 -0.913546 -0.406736
    outer loop
      vertex 89.3 104.576 38.103
      vertex 88.15 103.954 39.5
      vertex 88.15 104.669 37.8943
    endloop
  endfacet
  facet normal 0 -0.499999 -0.866026
    outer loop
      vertex 88.15 95.228 47.3574
      vertex 89.3 98.6679 45.3713
      vertex 89.3 95.228 47.3574
    endloop
  endfacet
  facet normal -0 -0.499999 -0.866026
    outer loop
      vertex 89.3 98.6679 45.3713
      vertex 88.15 95.228 47.3574
      vertex 88.15 98.6679 45.3713
    endloop
  endfacet
  facet normal 0 0.309018 -0.951056
    outer loop
      vertex 88.15 79.772 47.3574
      vertex 89.3 83.5497 48.5848
      vertex 89.3 79.772 47.3574
    endloop
  endfacet
  facet normal 0 0.309018 -0.951056
    outer loop
      vertex 89.3 83.5497 48.5848
      vertex 88.15 79.772 47.3574
      vertex 88.15 83.5497 48.5848
    endloop
  endfacet
  facet normal 0 0.809017 -0.587785
    outer loop
      vertex 89.3 71.0455 39.5
      vertex 88.15 73.3802 42.7135
      vertex 89.3 73.3802 42.7135
    endloop
  endfacet
  facet normal 0 0.809017 -0.587785
    outer loop
      vertex 88.15 73.3802 42.7135
      vertex 89.3 71.0455 39.5
      vertex 88.15 71.0455 39.5
    endloop
  endfacet
  facet normal 0 0.499999 -0.866026
    outer loop
      vertex 88.15 76.3321 45.3713
      vertex 89.3 79.772 47.3574
      vertex 89.3 76.3321 45.3713
    endloop
  endfacet
  facet normal 0 0.499999 -0.866026
    outer loop
      vertex 89.3 79.772 47.3574
      vertex 88.15 76.3321 45.3713
      vertex 88.15 79.772 47.3574
    endloop
  endfacet
  facet normal 0 -0.5 0.866026
    outer loop
      vertex 88.15 98.6679 14.6287
      vertex 89.3 95.228 12.6426
      vertex 89.3 98.6679 14.6287
    endloop
  endfacet
  facet normal 0 -0.5 0.866026
    outer loop
      vertex 89.3 95.228 12.6426
      vertex 88.15 98.6679 14.6287
      vertex 88.15 95.228 12.6426
    endloop
  endfacet
  facet normal 0 -0.309017 0.951057
    outer loop
      vertex 88.15 95.228 12.6426
      vertex 89.3 91.4503 11.4152
      vertex 89.3 95.228 12.6426
    endloop
  endfacet
  facet normal 0 -0.309017 0.951057
    outer loop
      vertex 89.3 91.4503 11.4152
      vertex 88.15 95.228 12.6426
      vertex 88.15 91.4503 11.4152
    endloop
  endfacet
  facet normal 0 -0.669131 0.743144
    outer loop
      vertex 88.15 101.62 17.2865
      vertex 89.3 98.6679 14.6287
      vertex 89.3 101.62 17.2865
    endloop
  endfacet
  facet normal 0 -0.669131 0.743144
    outer loop
      vertex 89.3 98.6679 14.6287
      vertex 88.15 101.62 17.2865
      vertex 88.15 98.6679 14.6287
    endloop
  endfacet
  facet normal -1.2922e-07 -0.809017 0.587786
    outer loop
      vertex 88.15 101.62 17.2865
      vertex 89.3 102.519 18.5237
      vertex 88.15 102.653 18.7085
    endloop
  endfacet
  facet normal 0 -0.809017 0.587786
    outer loop
      vertex 89.3 102.519 18.5237
      vertex 88.15 101.62 17.2865
      vertex 89.3 101.62 17.2865
    endloop
  endfacet
  facet normal 0 -1 0
    outer loop
      vertex 88.15 106.396 28.014
      vertex 89.3 106.396 31.986
      vertex 88.15 106.396 31.986
    endloop
  endfacet
  facet normal 0 -1 -0
    outer loop
      vertex 89.3 106.396 31.986
      vertex 88.15 106.396 28.014
      vertex 89.3 106.396 28.014
    endloop
  endfacet
  facet normal 0 -0.104529 -0.994522
    outer loop
      vertex 88.15 87.5 49
      vertex 89.3 91.4503 48.5848
      vertex 89.3 87.5 49
    endloop
  endfacet
  facet normal -0 -0.104529 -0.994522
    outer loop
      vertex 89.3 91.4503 48.5848
      vertex 88.15 87.5 49
      vertex 88.15 91.4503 48.5848
    endloop
  endfacet
  facet normal -7.18979e-07 -0.809017 -0.587785
    outer loop
      vertex 88.15 103.954 39.5
      vertex 89.3 103.056 40.7372
      vertex 88.15 102.921 40.922
    endloop
  endfacet
  facet normal 0 -0.809017 -0.587786
    outer loop
      vertex 89.3 103.056 40.7372
      vertex 88.15 103.954 39.5
      vertex 89.3 103.954 39.5
    endloop
  endfacet
  facet normal -0 0.309017 0.951056
    outer loop
      vertex 88.15 83.5497 11.4152
      vertex 89.3 79.772 12.6426
      vertex 89.3 83.5497 11.4152
    endloop
  endfacet
  facet normal 0 0.309017 0.951056
    outer loop
      vertex 89.3 79.772 12.6426
      vertex 88.15 83.5497 11.4152
      vertex 88.15 79.772 12.6426
    endloop
  endfacet
  facet normal 0 0.978148 -0.207912
    outer loop
      vertex 89.3 68.6041 31.986
      vertex 88.15 69.4299 35.8713
      vertex 89.3 69.4299 35.8713
    endloop
  endfacet
  facet normal 0 0.978148 -0.207912
    outer loop
      vertex 88.15 69.4299 35.8713
      vertex 89.3 68.6041 31.986
      vertex 88.15 68.6041 31.986
    endloop
  endfacet
  facet normal 0 0.669131 -0.743144
    outer loop
      vertex 88.15 73.3802 42.7135
      vertex 89.3 76.3321 45.3713
      vertex 89.3 73.3802 42.7135
    endloop
  endfacet
  facet normal 0 0.669131 -0.743144
    outer loop
      vertex 89.3 76.3321 45.3713
      vertex 88.15 73.3802 42.7135
      vertex 88.15 76.3321 45.3713
    endloop
  endfacet
  facet normal 0 0.104528 -0.994522
    outer loop
      vertex 88.15 83.5497 48.5848
      vertex 89.3 87.5 49
      vertex 89.3 83.5497 48.5848
    endloop
  endfacet
  facet normal 0 0.104528 -0.994522
    outer loop
      vertex 89.3 87.5 49
      vertex 88.15 83.5497 48.5848
      vertex 88.15 87.5 49
    endloop
  endfacet
  facet normal 0 -0.913546 0.406735
    outer loop
      vertex 89.3 103.954 20.5
      vertex 88.15 104.855 22.523
      vertex 88.15 103.954 20.5
    endloop
  endfacet
  facet normal -3.42045e-07 -0.913546 0.406735
    outer loop
      vertex 88.15 104.855 22.523
      vertex 89.3 103.954 20.5
      vertex 89.3 104.948 22.7316
    endloop
  endfacet
  facet normal 0 -0.913544 0.40674
    outer loop
      vertex 88.15 105.57 24.1287
      vertex 89.3 104.948 22.7316
      vertex 89.3 105.57 24.1287
    endloop
  endfacet
  facet normal -1.26293e-06 -0.913544 0.406739
    outer loop
      vertex 89.3 104.948 22.7316
      vertex 88.15 105.57 24.1287
      vertex 88.15 104.855 22.523
    endloop
  endfacet
  facet normal -0 -0.913545 -0.406738
    outer loop
      vertex 89.3 105.57 35.8713
      vertex 88.15 104.669 37.8943
      vertex 88.15 105.57 35.8713
    endloop
  endfacet
  facet normal 9.08693e-07 -0.913545 -0.406738
    outer loop
      vertex 88.15 104.669 37.8943
      vertex 89.3 105.57 35.8713
      vertex 89.3 104.576 38.103
    endloop
  endfacet
  facet normal 0 -0.669131 -0.743144
    outer loop
      vertex 88.15 98.6679 45.3713
      vertex 89.3 101.62 42.7135
      vertex 89.3 98.6679 45.3713
    endloop
  endfacet
  facet normal -0 -0.669131 -0.743144
    outer loop
      vertex 89.3 101.62 42.7135
      vertex 88.15 98.6679 45.3713
      vertex 88.15 101.62 42.7135
    endloop
  endfacet
  facet normal 0 1 -0
    outer loop
      vertex 89.3 68.6041 28.014
      vertex 88.15 68.6041 31.986
      vertex 89.3 68.6041 31.986
    endloop
  endfacet
  facet normal 0 1 0
    outer loop
      vertex 88.15 68.6041 31.986
      vertex 89.3 68.6041 28.014
      vertex 88.15 68.6041 28.014
    endloop
  endfacet
  facet normal -0 0.809017 0.587786
    outer loop
      vertex 88.15 73.3802 17.2865
      vertex 89.3 72.4814 18.5237
      vertex 89.3 73.3802 17.2865
    endloop
  endfacet
  facet normal -1.2922e-07 0.809017 0.587786
    outer loop
      vertex 89.3 72.4814 18.5237
      vertex 88.15 73.3802 17.2865
      vertex 88.15 72.3471 18.7085
    endloop
  endfacet
  facet normal 0 0.104528 0.994522
    outer loop
      vertex 88.15 85.2977 11.2315
      vertex 89.3 87.5 11
      vertex 88.15 87.5 11
    endloop
  endfacet
  facet normal 8.49296e-07 0.104528 0.994522
    outer loop
      vertex 89.3 87.5 11
      vertex 88.15 85.2977 11.2315
      vertex 89.3 85.0705 11.2553
    endloop
  endfacet
  facet normal 0 -0.978148 -0.207912
    outer loop
      vertex 88.15 106.396 31.986
      vertex 89.3 105.57 35.8713
      vertex 88.15 105.57 35.8713
    endloop
  endfacet
  facet normal 0 -0.978148 -0.207912
    outer loop
      vertex 89.3 105.57 35.8713
      vertex 88.15 106.396 31.986
      vertex 89.3 106.396 31.986
    endloop
  endfacet
  facet normal 0 -0.809017 -0.587785
    outer loop
      vertex 88.15 102.921 40.922
      vertex 89.3 101.62 42.7135
      vertex 88.15 101.62 42.7135
    endloop
  endfacet
  facet normal -6.99609e-07 -0.809017 -0.587785
    outer loop
      vertex 89.3 101.62 42.7135
      vertex 88.15 102.921 40.922
      vertex 89.3 103.056 40.7372
    endloop
  endfacet
  facet normal 5.15199e-06 0.913545 0.406738
    outer loop
      vertex 89.3 71.0455 20.5
      vertex 88.15 70.1448 22.523
      vertex 89.3 70.0519 22.7316
    endloop
  endfacet
  facet normal 0 0.913546 0.406735
    outer loop
      vertex 88.15 70.1448 22.523
      vertex 89.3 71.0455 20.5
      vertex 88.15 71.0455 20.5
    endloop
  endfacet
  facet normal 0 0.809017 0.587785
    outer loop
      vertex 89.3 71.0455 20.5
      vertex 88.15 72.3471 18.7085
      vertex 88.15 71.0455 20.5
    endloop
  endfacet
  facet normal -2.7527e-07 0.809017 0.587785
    outer loop
      vertex 88.15 72.3471 18.7085
      vertex 89.3 71.0455 20.5
      vertex 89.3 72.4814 18.5237
    endloop
  endfacet
  facet normal 0 0.913546 0.406736
    outer loop
      vertex 89.3 70.0519 22.7316
      vertex 88.15 69.4299 24.1287
      vertex 89.3 69.4299 24.1287
    endloop
  endfacet
  facet normal 4.79775e-06 0.913544 0.406739
    outer loop
      vertex 88.15 69.4299 24.1287
      vertex 89.3 70.0519 22.7316
      vertex 88.15 70.1448 22.523
    endloop
  endfacet
  facet normal -0 0.5 0.866026
    outer loop
      vertex 88.15 79.772 12.6426
      vertex 89.3 76.3321 14.6287
      vertex 89.3 79.772 12.6426
    endloop
  endfacet
  facet normal 0 0.5 0.866026
    outer loop
      vertex 89.3 76.3321 14.6287
      vertex 88.15 79.772 12.6426
      vertex 88.15 76.3321 14.6287
    endloop
  endfacet
  facet normal -0 0.669131 0.743144
    outer loop
      vertex 88.15 76.3321 14.6287
      vertex 89.3 73.3802 17.2865
      vertex 89.3 76.3321 14.6287
    endloop
  endfacet
  facet normal 0 0.669131 0.743144
    outer loop
      vertex 89.3 73.3802 17.2865
      vertex 88.15 76.3321 14.6287
      vertex 88.15 73.3802 17.2865
    endloop
  endfacet
  facet normal 9.10046e-07 0.104528 0.994522
    outer loop
      vertex 88.15 83.5497 11.4152
      vertex 89.3 85.0705 11.2553
      vertex 88.15 85.2977 11.2315
    endloop
  endfacet
  facet normal 0 0.104529 0.994522
    outer loop
      vertex 89.3 85.0705 11.2553
      vertex 88.15 83.5497 11.4152
      vertex 89.3 83.5497 11.4152
    endloop
  endfacet
  facet normal 0 0.978148 0.207912
    outer loop
      vertex 89.3 69.4299 24.1287
      vertex 88.15 68.6041 28.014
      vertex 89.3 68.6041 28.014
    endloop
  endfacet
  facet normal 0 0.978148 0.207912
    outer loop
      vertex 88.15 68.6041 28.014
      vertex 89.3 69.4299 24.1287
      vertex 88.15 69.4299 24.1287
    endloop
  endfacet
endsolid OpenSCAD_Model
