solid OpenSCAD_Model
  facet normal 1 -0 0
    outer loop
      vertex 1.15 1.15 191.15
      vertex 1.15 186.15 1.15
      vertex 1.15 186.15 191.15
    endloop
  endfacet
  facet normal 1 0 0
    outer loop
      vertex 1.15 186.15 1.15
      vertex 1.15 1.15 191.15
      vertex 1.15 1.15 1.15
    endloop
  endfacet
  facet normal -1 0 0
    outer loop
      vertex 88.15 111.396 31.986
      vertex 88.15 186.15 1.15
      vertex 88.15 111.396 28.014
    endloop
  endfacet
  facet normal -1 0 0
    outer loop
      vertex 88.15 186.15 1.15
      vertex 88.15 110.57 24.1287
      vertex 88.15 111.396 28.014
    endloop
  endfacet
  facet normal -1 0 0
    outer loop
      vertex 88.15 186.15 1.15
      vertex 88.15 109.855 22.523
      vertex 88.15 110.57 24.1287
    endloop
  endfacet
  facet normal -1 0 0
    outer loop
      vertex 88.15 186.15 1.15
      vertex 88.15 108.954 20.5
      vertex 88.15 109.855 22.523
    endloop
  endfacet
  facet normal -1 0 0
    outer loop
      vertex 88.15 186.15 1.15
      vertex 88.15 107.653 18.7085
      vertex 88.15 108.954 20.5
    endloop
  endfacet
  facet normal -1 0 0
    outer loop
      vertex 88.15 186.15 1.15
      vertex 88.15 106.62 17.2865
      vertex 88.15 107.653 18.7085
    endloop
  endfacet
  facet normal -1 0 0
    outer loop
      vertex 88.15 186.15 1.15
      vertex 88.15 103.668 14.6287
      vertex 88.15 106.62 17.2865
    endloop
  endfacet
  facet normal -1 0 0
    outer loop
      vertex 88.15 186.15 1.15
      vertex 88.15 100.228 12.6426
      vertex 88.15 103.668 14.6287
    endloop
  endfacet
  facet normal -1 0 0
    outer loop
      vertex 88.15 186.15 1.15
      vertex 88.15 96.4503 11.4152
      vertex 88.15 100.228 12.6426
    endloop
  endfacet
  facet normal -1 0 0
    outer loop
      vertex 88.15 186.15 1.15
      vertex 88.15 94.7023 11.2315
      vertex 88.15 96.4503 11.4152
    endloop
  endfacet
  facet normal -1 0 0
    outer loop
      vertex 88.15 186.15 1.15
      vertex 88.15 92.5 11
      vertex 88.15 94.7023 11.2315
    endloop
  endfacet
  facet normal -1 0 0
    outer loop
      vertex 88.15 1.15 1.15
      vertex 88.15 92.5 11
      vertex 88.15 186.15 1.15
    endloop
  endfacet
  facet normal -1 -0 0
    outer loop
      vertex 88.15 92.5 11
      vertex 88.15 1.15 1.15
      vertex 88.15 90.2977 11.2315
    endloop
  endfacet
  facet normal -1 0 0
    outer loop
      vertex 88.15 1.15 1.15
      vertex 88.15 75.1448 22.523
      vertex 88.15 76.0455 20.5
    endloop
  endfacet
  facet normal -1 -0 0
    outer loop
      vertex 88.15 73.6041 28.014
      vertex 88.15 1.15 1.15
      vertex 88.15 73.6041 31.986
    endloop
  endfacet
  facet normal -1 -0 0
    outer loop
      vertex 88.15 74.4299 24.1287
      vertex 88.15 1.15 1.15
      vertex 88.15 73.6041 28.014
    endloop
  endfacet
  facet normal -1 -0 0
    outer loop
      vertex 88.15 75.1448 22.523
      vertex 88.15 1.15 1.15
      vertex 88.15 74.4299 24.1287
    endloop
  endfacet
  facet normal -1 -0 0
    outer loop
      vertex 88.15 77.3471 18.7085
      vertex 88.15 1.15 1.15
      vertex 88.15 76.0455 20.5
    endloop
  endfacet
  facet normal -1 -0 0
    outer loop
      vertex 88.15 78.3802 17.2865
      vertex 88.15 1.15 1.15
      vertex 88.15 77.3471 18.7085
    endloop
  endfacet
  facet normal -1 -0 0
    outer loop
      vertex 88.15 81.3321 14.6287
      vertex 88.15 1.15 1.15
      vertex 88.15 78.3802 17.2865
    endloop
  endfacet
  facet normal -1 -0 0
    outer loop
      vertex 88.15 84.772 12.6426
      vertex 88.15 1.15 1.15
      vertex 88.15 81.3321 14.6287
    endloop
  endfacet
  facet normal -1 -0 0
    outer loop
      vertex 88.15 88.5497 11.4152
      vertex 88.15 1.15 1.15
      vertex 88.15 84.772 12.6426
    endloop
  endfacet
  facet normal -1 -0 0
    outer loop
      vertex 88.15 90.2977 11.2315
      vertex 88.15 1.15 1.15
      vertex 88.15 88.5497 11.4152
    endloop
  endfacet
  facet normal -1 0 0
    outer loop
      vertex 88.15 110.57 35.8713
      vertex 88.15 186.15 1.15
      vertex 88.15 111.396 31.986
    endloop
  endfacet
  facet normal -1 0 0
    outer loop
      vertex 88.15 109.669 37.8943
      vertex 88.15 186.15 1.15
      vertex 88.15 110.57 35.8713
    endloop
  endfacet
  facet normal -1 0 0
    outer loop
      vertex 88.15 108.954 39.5
      vertex 88.15 186.15 1.15
      vertex 88.15 109.669 37.8943
    endloop
  endfacet
  facet normal -1 0 0
    outer loop
      vertex 88.15 186.15 1.15
      vertex 88.15 108.954 39.5
      vertex 88.15 186.15 191.15
    endloop
  endfacet
  facet normal -1 0 0
    outer loop
      vertex 88.15 107.921 40.922
      vertex 88.15 186.15 191.15
      vertex 88.15 108.954 39.5
    endloop
  endfacet
  facet normal -1 0 0
    outer loop
      vertex 88.15 106.62 42.7135
      vertex 88.15 186.15 191.15
      vertex 88.15 107.921 40.922
    endloop
  endfacet
  facet normal -1 0 0
    outer loop
      vertex 88.15 103.668 45.3713
      vertex 88.15 186.15 191.15
      vertex 88.15 106.62 42.7135
    endloop
  endfacet
  facet normal -1 0 0
    outer loop
      vertex 88.15 100.228 47.3574
      vertex 88.15 186.15 191.15
      vertex 88.15 103.668 45.3713
    endloop
  endfacet
  facet normal -1 0 0
    outer loop
      vertex 88.15 96.4503 48.5848
      vertex 88.15 186.15 191.15
      vertex 88.15 100.228 47.3574
    endloop
  endfacet
  facet normal -1 0 0
    outer loop
      vertex 88.15 92.5 49
      vertex 88.15 186.15 191.15
      vertex 88.15 96.4503 48.5848
    endloop
  endfacet
  facet normal -1 0 0
    outer loop
      vertex 88.15 1.15 191.15
      vertex 88.15 92.5 49
      vertex 88.15 88.5497 48.5848
    endloop
  endfacet
  facet normal -1 0 0
    outer loop
      vertex 88.15 1.15 191.15
      vertex 88.15 88.5497 48.5848
      vertex 88.15 84.772 47.3574
    endloop
  endfacet
  facet normal -1 0 0
    outer loop
      vertex 88.15 1.15 191.15
      vertex 88.15 84.772 47.3574
      vertex 88.15 81.3321 45.3713
    endloop
  endfacet
  facet normal -1 0 0
    outer loop
      vertex 88.15 1.15 191.15
      vertex 88.15 81.3321 45.3713
      vertex 88.15 78.3802 42.7135
    endloop
  endfacet
  facet normal -1 0 0
    outer loop
      vertex 88.15 1.15 191.15
      vertex 88.15 78.3802 42.7135
      vertex 88.15 76.0455 39.5
    endloop
  endfacet
  facet normal -1 0 0
    outer loop
      vertex 88.15 1.15 1.15
      vertex 88.15 74.4299 35.8713
      vertex 88.15 73.6041 31.986
    endloop
  endfacet
  facet normal -1 0 0
    outer loop
      vertex 88.15 1.15 1.15
      vertex 88.15 76.0455 39.5
      vertex 88.15 74.4299 35.8713
    endloop
  endfacet
  facet normal -1 0 0
    outer loop
      vertex 88.15 1.15 191.15
      vertex 88.15 76.0455 39.5
      vertex 88.15 1.15 1.15
    endloop
  endfacet
  facet normal -1 0 0
    outer loop
      vertex 88.15 92.5 49
      vertex 88.15 1.15 191.15
      vertex 88.15 186.15 191.15
    endloop
  endfacet
  facet normal -0 0 1
    outer loop
      vertex 1.15 186.15 1.15
      vertex 88.15 1.15 1.15
      vertex 88.15 186.15 1.15
    endloop
  endfacet
  facet normal 0 0 1
    outer loop
      vertex 88.15 1.15 1.15
      vertex 1.15 186.15 1.15
      vertex 1.15 1.15 1.15
    endloop
  endfacet
  facet normal 0 1 -0
    outer loop
      vertex 88.15 1.15 1.15
      vertex 1.15 1.15 191.15
      vertex 88.15 1.15 191.15
    endloop
  endfacet
  facet normal 0 1 0
    outer loop
      vertex 1.15 1.15 191.15
      vertex 88.15 1.15 1.15
      vertex 1.15 1.15 1.15
    endloop
  endfacet
  facet normal 0 -1 0
    outer loop
      vertex 1.15 186.15 1.15
      vertex 88.15 186.15 191.15
      vertex 1.15 186.15 191.15
    endloop
  endfacet
  facet normal 0 -1 -0
    outer loop
      vertex 88.15 186.15 191.15
      vertex 1.15 186.15 1.15
      vertex 88.15 186.15 1.15
    endloop
  endfacet
  facet normal 1 -0 0
    outer loop
      vertex 89.3 108.954 39.5
      vertex 89.3 186.15 1.15
      vertex 89.3 186.15 191.15
    endloop
  endfacet
  facet normal 1 0 0
    outer loop
      vertex 89.3 186.15 1.15
      vertex 89.3 110.57 35.8713
      vertex 89.3 111.396 31.986
    endloop
  endfacet
  facet normal 1 0 0
    outer loop
      vertex 89.3 186.15 1.15
      vertex 89.3 109.576 38.103
      vertex 89.3 110.57 35.8713
    endloop
  endfacet
  facet normal 1 0 0
    outer loop
      vertex 89.3 186.15 1.15
      vertex 89.3 108.954 39.5
      vertex 89.3 109.576 38.103
    endloop
  endfacet
  facet normal 1 0 0
    outer loop
      vertex 89.3 186.15 191.15
      vertex 89.3 108.056 40.7372
      vertex 89.3 108.954 39.5
    endloop
  endfacet
  facet normal 1 0 0
    outer loop
      vertex 89.3 186.15 191.15
      vertex 89.3 106.62 42.7135
      vertex 89.3 108.056 40.7372
    endloop
  endfacet
  facet normal 1 0 0
    outer loop
      vertex 89.3 186.15 191.15
      vertex 89.3 103.668 45.3713
      vertex 89.3 106.62 42.7135
    endloop
  endfacet
  facet normal 1 0 0
    outer loop
      vertex 89.3 186.15 191.15
      vertex 89.3 100.228 47.3574
      vertex 89.3 103.668 45.3713
    endloop
  endfacet
  facet normal 1 0 0
    outer loop
      vertex 89.3 186.15 191.15
      vertex 89.3 96.4503 48.5848
      vertex 89.3 100.228 47.3574
    endloop
  endfacet
  facet normal 1 0 0
    outer loop
      vertex 89.3 186.15 191.15
      vertex 89.3 92.5 49
      vertex 89.3 96.4503 48.5848
    endloop
  endfacet
  facet normal 1 -0 0
    outer loop
      vertex 89.3 1.15 191.15
      vertex 89.3 92.5 49
      vertex 89.3 186.15 191.15
    endloop
  endfacet
  facet normal 1 0 0
    outer loop
      vertex 89.3 92.5 49
      vertex 89.3 1.15 191.15
      vertex 89.3 88.5497 48.5848
    endloop
  endfacet
  facet normal 1 0 0
    outer loop
      vertex 89.3 88.5497 48.5848
      vertex 89.3 1.15 191.15
      vertex 89.3 84.772 47.3574
    endloop
  endfacet
  facet normal 1 0 0
    outer loop
      vertex 89.3 84.772 47.3574
      vertex 89.3 1.15 191.15
      vertex 89.3 81.3321 45.3713
    endloop
  endfacet
  facet normal 1 0 0
    outer loop
      vertex 89.3 81.3321 45.3713
      vertex 89.3 1.15 191.15
      vertex 89.3 78.3802 42.7135
    endloop
  endfacet
  facet normal 1 0 0
    outer loop
      vertex 89.3 74.4299 35.8713
      vertex 89.3 1.15 1.15
      vertex 89.3 73.6041 31.986
    endloop
  endfacet
  facet normal 1 0 0
    outer loop
      vertex 89.3 76.0455 39.5
      vertex 89.3 1.15 1.15
      vertex 89.3 74.4299 35.8713
    endloop
  endfacet
  facet normal 1 0 0
    outer loop
      vertex 89.3 1.15 1.15
      vertex 89.3 76.0455 39.5
      vertex 89.3 1.15 191.15
    endloop
  endfacet
  facet normal 1 0 0
    outer loop
      vertex 89.3 78.3802 42.7135
      vertex 89.3 1.15 191.15
      vertex 89.3 76.0455 39.5
    endloop
  endfacet
  facet normal 1 -0 0
    outer loop
      vertex 89.3 111.396 28.014
      vertex 89.3 186.15 1.15
      vertex 89.3 111.396 31.986
    endloop
  endfacet
  facet normal 1 -0 0
    outer loop
      vertex 89.3 110.57 24.1287
      vertex 89.3 186.15 1.15
      vertex 89.3 111.396 28.014
    endloop
  endfacet
  facet normal 1 -0 0
    outer loop
      vertex 89.3 109.948 22.7316
      vertex 89.3 186.15 1.15
      vertex 89.3 110.57 24.1287
    endloop
  endfacet
  facet normal 1 -0 0
    outer loop
      vertex 89.3 108.954 20.5
      vertex 89.3 186.15 1.15
      vertex 89.3 109.948 22.7316
    endloop
  endfacet
  facet normal 1 -0 0
    outer loop
      vertex 89.3 107.519 18.5237
      vertex 89.3 186.15 1.15
      vertex 89.3 108.954 20.5
    endloop
  endfacet
  facet normal 1 -0 0
    outer loop
      vertex 89.3 106.62 17.2865
      vertex 89.3 186.15 1.15
      vertex 89.3 107.519 18.5237
    endloop
  endfacet
  facet normal 1 -0 0
    outer loop
      vertex 89.3 103.668 14.6287
      vertex 89.3 186.15 1.15
      vertex 89.3 106.62 17.2865
    endloop
  endfacet
  facet normal 1 -0 0
    outer loop
      vertex 89.3 100.228 12.6426
      vertex 89.3 186.15 1.15
      vertex 89.3 103.668 14.6287
    endloop
  endfacet
  facet normal 1 -0 0
    outer loop
      vertex 89.3 96.4503 11.4152
      vertex 89.3 186.15 1.15
      vertex 89.3 100.228 12.6426
    endloop
  endfacet
  facet normal 1 -0 0
    outer loop
      vertex 89.3 94.9295 11.2553
      vertex 89.3 186.15 1.15
      vertex 89.3 96.4503 11.4152
    endloop
  endfacet
  facet normal 1 -0 0
    outer loop
      vertex 89.3 92.5 11
      vertex 89.3 186.15 1.15
      vertex 89.3 94.9295 11.2553
    endloop
  endfacet
  facet normal 1 0 0
    outer loop
      vertex 89.3 1.15 1.15
      vertex 89.3 92.5 11
      vertex 89.3 90.0705 11.2553
    endloop
  endfacet
  facet normal 1 0 0
    outer loop
      vertex 89.3 1.15 1.15
      vertex 89.3 90.0705 11.2553
      vertex 89.3 88.5497 11.4152
    endloop
  endfacet
  facet normal 1 0 0
    outer loop
      vertex 89.3 73.6041 31.986
      vertex 89.3 1.15 1.15
      vertex 89.3 73.6041 28.014
    endloop
  endfacet
  facet normal 1 0 0
    outer loop
      vertex 89.3 92.5 11
      vertex 89.3 1.15 1.15
      vertex 89.3 186.15 1.15
    endloop
  endfacet
  facet normal 1 0 0
    outer loop
      vertex 89.3 84.772 12.6426
      vertex 89.3 1.15 1.15
      vertex 89.3 88.5497 11.4152
    endloop
  endfacet
  facet normal 1 0 0
    outer loop
      vertex 89.3 81.3321 14.6287
      vertex 89.3 1.15 1.15
      vertex 89.3 84.772 12.6426
    endloop
  endfacet
  facet normal 1 0 0
    outer loop
      vertex 89.3 78.3802 17.2865
      vertex 89.3 1.15 1.15
      vertex 89.3 81.3321 14.6287
    endloop
  endfacet
  facet normal 1 0 0
    outer loop
      vertex 89.3 77.4814 18.5237
      vertex 89.3 1.15 1.15
      vertex 89.3 78.3802 17.2865
    endloop
  endfacet
  facet normal 1 0 0
    outer loop
      vertex 89.3 76.0455 20.5
      vertex 89.3 1.15 1.15
      vertex 89.3 77.4814 18.5237
    endloop
  endfacet
  facet normal 1 0 0
    outer loop
      vertex 89.3 75.0519 22.7316
      vertex 89.3 1.15 1.15
      vertex 89.3 76.0455 20.5
    endloop
  endfacet
  facet normal 1 0 0
    outer loop
      vertex 89.3 74.4299 24.1287
      vertex 89.3 1.15 1.15
      vertex 89.3 75.0519 22.7316
    endloop
  endfacet
  facet normal 1 0 0
    outer loop
      vertex 89.3 73.6041 28.014
      vertex 89.3 1.15 1.15
      vertex 89.3 74.4299 24.1287
    endloop
  endfacet
  facet normal -1 0 0
    outer loop
      vertex 176.3 1.15 1.15
      vertex 176.3 186.15 191.15
      vertex 176.3 186.15 1.15
    endloop
  endfacet
  facet normal -1 -0 0
    outer loop
      vertex 176.3 186.15 191.15
      vertex 176.3 1.15 1.15
      vertex 176.3 1.15 191.15
    endloop
  endfacet
  facet normal 0 -1 0
    outer loop
      vertex 89.3 186.15 1.15
      vertex 176.3 186.15 191.15
      vertex 89.3 186.15 191.15
    endloop
  endfacet
  facet normal 0 -1 -0
    outer loop
      vertex 176.3 186.15 191.15
      vertex 89.3 186.15 1.15
      vertex 176.3 186.15 1.15
    endloop
  endfacet
  facet normal -0 0 1
    outer loop
      vertex 89.3 186.15 1.15
      vertex 176.3 1.15 1.15
      vertex 176.3 186.15 1.15
    endloop
  endfacet
  facet normal 0 0 1
    outer loop
      vertex 176.3 1.15 1.15
      vertex 89.3 186.15 1.15
      vertex 89.3 1.15 1.15
    endloop
  endfacet
  facet normal 0 1 -0
    outer loop
      vertex 176.3 1.15 1.15
      vertex 89.3 1.15 191.15
      vertex 176.3 1.15 191.15
    endloop
  endfacet
  facet normal 0 1 0
    outer loop
      vertex 89.3 1.15 191.15
      vertex 176.3 1.15 1.15
      vertex 89.3 1.15 1.15
    endloop
  endfacet
  facet normal -1 0 0
    outer loop
      vertex 0 0 0
      vertex 0 187.3 191.15
      vertex 0 187.3 0
    endloop
  endfacet
  facet normal -1 -0 0
    outer loop
      vertex 0 187.3 191.15
      vertex 0 0 0
      vertex 0 0 191.15
    endloop
  endfacet
  facet normal 0 0 1
    outer loop
      vertex 177.45 187.3 191.15
      vertex 176.3 186.15 191.15
      vertex 177.45 0 191.15
    endloop
  endfacet
  facet normal 0 0 1
    outer loop
      vertex 177.45 187.3 191.15
      vertex 89.3 186.15 191.15
      vertex 176.3 186.15 191.15
    endloop
  endfacet
  facet normal 0 0 1
    outer loop
      vertex 89.3 186.15 191.15
      vertex 88.15 186.15 191.15
      vertex 89.3 1.15 191.15
    endloop
  endfacet
  facet normal 0 0 1
    outer loop
      vertex 177.45 187.3 191.15
      vertex 88.15 186.15 191.15
      vertex 89.3 186.15 191.15
    endloop
  endfacet
  facet normal -0 0 1
    outer loop
      vertex 0 187.3 191.15
      vertex 88.15 186.15 191.15
      vertex 177.45 187.3 191.15
    endloop
  endfacet
  facet normal 0 0 1
    outer loop
      vertex 1.15 186.15 191.15
      vertex 0 187.3 191.15
      vertex 1.15 1.15 191.15
    endloop
  endfacet
  facet normal 0 0 1
    outer loop
      vertex 88.15 186.15 191.15
      vertex 0 187.3 191.15
      vertex 1.15 186.15 191.15
    endloop
  endfacet
  facet normal -0 0 1
    outer loop
      vertex 176.3 1.15 191.15
      vertex 177.45 0 191.15
      vertex 176.3 186.15 191.15
    endloop
  endfacet
  facet normal -0 0 1
    outer loop
      vertex 89.3 1.15 191.15
      vertex 177.45 0 191.15
      vertex 176.3 1.15 191.15
    endloop
  endfacet
  facet normal 0 0 1
    outer loop
      vertex 88.15 1.15 191.15
      vertex 89.3 1.15 191.15
      vertex 88.15 186.15 191.15
    endloop
  endfacet
  facet normal -0 0 1
    outer loop
      vertex 88.15 1.15 191.15
      vertex 177.45 0 191.15
      vertex 89.3 1.15 191.15
    endloop
  endfacet
  facet normal 0 0 1
    outer loop
      vertex 0 0 191.15
      vertex 88.15 1.15 191.15
      vertex 1.15 1.15 191.15
    endloop
  endfacet
  facet normal 0 0 1
    outer loop
      vertex 88.15 1.15 191.15
      vertex 0 0 191.15
      vertex 177.45 0 191.15
    endloop
  endfacet
  facet normal 0 0 1
    outer loop
      vertex 0 0 191.15
      vertex 1.15 1.15 191.15
      vertex 0 187.3 191.15
    endloop
  endfacet
  facet normal 1 -0 0
    outer loop
      vertex 177.45 0 191.15
      vertex 177.45 187.3 0
      vertex 177.45 187.3 191.15
    endloop
  endfacet
  facet normal 1 0 0
    outer loop
      vertex 177.45 187.3 0
      vertex 177.45 0 191.15
      vertex 177.45 0 0
    endloop
  endfacet
  facet normal 0 0 -1
    outer loop
      vertex 0 0 0
      vertex 177.45 187.3 0
      vertex 177.45 0 0
    endloop
  endfacet
  facet normal -0 0 -1
    outer loop
      vertex 177.45 187.3 0
      vertex 0 0 0
      vertex 0 187.3 0
    endloop
  endfacet
  facet normal 0 -1 0
    outer loop
      vertex 0 0 0
      vertex 177.45 0 191.15
      vertex 0 0 191.15
    endloop
  endfacet
  facet normal 0 -1 -0
    outer loop
      vertex 177.45 0 191.15
      vertex 0 0 0
      vertex 177.45 0 0
    endloop
  endfacet
  facet normal 0 1 -0
    outer loop
      vertex 177.45 187.3 0
      vertex 0 187.3 191.15
      vertex 177.45 187.3 191.15
    endloop
  endfacet
  facet normal 0 1 0
    outer loop
      vertex 0 187.3 191.15
      vertex 177.45 187.3 0
      vertex 0 187.3 0
    endloop
  endfacet
  facet normal 0 -0.104529 0.994522
    outer loop
      vertex 88.15 96.4503 11.4152
      vertex 89.3 94.9295 11.2553
      vertex 89.3 96.4503 11.4152
    endloop
  endfacet
  facet normal 1.00016e-006 -0.104529 0.994522
    outer loop
      vertex 89.3 94.9295 11.2553
      vertex 88.15 96.4503 11.4152
      vertex 88.15 94.7023 11.2315
    endloop
  endfacet
  facet normal 8.49296e-007 -0.104528 0.994522
    outer loop
      vertex 88.15 94.7023 11.2315
      vertex 89.3 92.5 11
      vertex 89.3 94.9295 11.2553
    endloop
  endfacet
  facet normal 0 -0.104528 0.994522
    outer loop
      vertex 89.3 92.5 11
      vertex 88.15 94.7023 11.2315
      vertex 88.15 92.5 11
    endloop
  endfacet
  facet normal 0 -0.104529 -0.994522
    outer loop
      vertex 88.15 92.5 49
      vertex 89.3 96.4503 48.5848
      vertex 89.3 92.5 49
    endloop
  endfacet
  facet normal -0 -0.104529 -0.994522
    outer loop
      vertex 89.3 96.4503 48.5848
      vertex 88.15 92.5 49
      vertex 88.15 96.4503 48.5848
    endloop
  endfacet
  facet normal 0 0.978148 -0.207912
    outer loop
      vertex 89.3 73.6041 31.986
      vertex 88.15 74.4299 35.8713
      vertex 89.3 74.4299 35.8713
    endloop
  endfacet
  facet normal 0 0.978148 -0.207912
    outer loop
      vertex 88.15 74.4299 35.8713
      vertex 89.3 73.6041 31.986
      vertex 88.15 73.6041 31.986
    endloop
  endfacet
  facet normal 0 1 -0
    outer loop
      vertex 89.3 73.6041 28.014
      vertex 88.15 73.6041 31.986
      vertex 89.3 73.6041 31.986
    endloop
  endfacet
  facet normal 0 1 0
    outer loop
      vertex 88.15 73.6041 31.986
      vertex 89.3 73.6041 28.014
      vertex 88.15 73.6041 28.014
    endloop
  endfacet
  facet normal 0 0.499999 -0.866026
    outer loop
      vertex 88.15 81.3321 45.3713
      vertex 89.3 84.772 47.3574
      vertex 89.3 81.3321 45.3713
    endloop
  endfacet
  facet normal 0 0.499999 -0.866026
    outer loop
      vertex 89.3 84.772 47.3574
      vertex 88.15 81.3321 45.3713
      vertex 88.15 84.772 47.3574
    endloop
  endfacet
  facet normal -1.2922e-007 -0.809017 0.587786
    outer loop
      vertex 88.15 106.62 17.2865
      vertex 89.3 107.519 18.5237
      vertex 88.15 107.653 18.7085
    endloop
  endfacet
  facet normal 0 -0.809017 0.587786
    outer loop
      vertex 89.3 107.519 18.5237
      vertex 88.15 106.62 17.2865
      vertex 89.3 106.62 17.2865
    endloop
  endfacet
  facet normal 0 -0.669131 -0.743144
    outer loop
      vertex 88.15 103.668 45.3713
      vertex 89.3 106.62 42.7135
      vertex 89.3 103.668 45.3713
    endloop
  endfacet
  facet normal -0 -0.669131 -0.743144
    outer loop
      vertex 89.3 106.62 42.7135
      vertex 88.15 103.668 45.3713
      vertex 88.15 106.62 42.7135
    endloop
  endfacet
  facet normal 0 -0.499999 -0.866026
    outer loop
      vertex 88.15 100.228 47.3574
      vertex 89.3 103.668 45.3713
      vertex 89.3 100.228 47.3574
    endloop
  endfacet
  facet normal -0 -0.499999 -0.866026
    outer loop
      vertex 89.3 103.668 45.3713
      vertex 88.15 100.228 47.3574
      vertex 88.15 103.668 45.3713
    endloop
  endfacet
  facet normal 0 -0.913546 -0.406736
    outer loop
      vertex 88.15 108.954 39.5
      vertex 89.3 109.576 38.103
      vertex 89.3 108.954 39.5
    endloop
  endfacet
  facet normal 4.75384e-007 -0.913546 -0.406736
    outer loop
      vertex 89.3 109.576 38.103
      vertex 88.15 108.954 39.5
      vertex 88.15 109.669 37.8943
    endloop
  endfacet
  facet normal -0 0.669131 0.743144
    outer loop
      vertex 88.15 81.3321 14.6287
      vertex 89.3 78.3802 17.2865
      vertex 89.3 81.3321 14.6287
    endloop
  endfacet
  facet normal 0 0.669131 0.743144
    outer loop
      vertex 89.3 78.3802 17.2865
      vertex 88.15 81.3321 14.6287
      vertex 88.15 78.3802 17.2865
    endloop
  endfacet
  facet normal 0 0.309018 -0.951056
    outer loop
      vertex 88.15 84.772 47.3574
      vertex 89.3 88.5497 48.5848
      vertex 89.3 84.772 47.3574
    endloop
  endfacet
  facet normal 0 0.309018 -0.951056
    outer loop
      vertex 89.3 88.5497 48.5848
      vertex 88.15 84.772 47.3574
      vertex 88.15 88.5497 48.5848
    endloop
  endfacet
  facet normal 0 -0.309017 0.951057
    outer loop
      vertex 88.15 100.228 12.6426
      vertex 89.3 96.4503 11.4152
      vertex 89.3 100.228 12.6426
    endloop
  endfacet
  facet normal 0 -0.309017 0.951057
    outer loop
      vertex 89.3 96.4503 11.4152
      vertex 88.15 100.228 12.6426
      vertex 88.15 96.4503 11.4152
    endloop
  endfacet
  facet normal 0 -0.669131 0.743144
    outer loop
      vertex 88.15 106.62 17.2865
      vertex 89.3 103.668 14.6287
      vertex 89.3 106.62 17.2865
    endloop
  endfacet
  facet normal 0 -0.669131 0.743144
    outer loop
      vertex 89.3 103.668 14.6287
      vertex 88.15 106.62 17.2865
      vertex 88.15 103.668 14.6287
    endloop
  endfacet
  facet normal 0 -0.913546 0.406735
    outer loop
      vertex 89.3 108.954 20.5
      vertex 88.15 109.855 22.523
      vertex 88.15 108.954 20.5
    endloop
  endfacet
  facet normal -3.42045e-007 -0.913546 0.406735
    outer loop
      vertex 88.15 109.855 22.523
      vertex 89.3 108.954 20.5
      vertex 89.3 109.948 22.7316
    endloop
  endfacet
  facet normal 0 -0.309017 -0.951056
    outer loop
      vertex 88.15 96.4503 48.5848
      vertex 89.3 100.228 47.3574
      vertex 89.3 96.4503 48.5848
    endloop
  endfacet
  facet normal -0 -0.309017 -0.951056
    outer loop
      vertex 89.3 100.228 47.3574
      vertex 88.15 96.4503 48.5848
      vertex 88.15 100.228 47.3574
    endloop
  endfacet
  facet normal -7.18979e-007 -0.809017 -0.587785
    outer loop
      vertex 88.15 108.954 39.5
      vertex 89.3 108.056 40.7372
      vertex 88.15 107.921 40.922
    endloop
  endfacet
  facet normal 0 -0.809017 -0.587786
    outer loop
      vertex 89.3 108.056 40.7372
      vertex 88.15 108.954 39.5
      vertex 89.3 108.954 39.5
    endloop
  endfacet
  facet normal -0 0.809017 0.587786
    outer loop
      vertex 88.15 78.3802 17.2865
      vertex 89.3 77.4814 18.5237
      vertex 89.3 78.3802 17.2865
    endloop
  endfacet
  facet normal -1.2922e-007 0.809017 0.587786
    outer loop
      vertex 89.3 77.4814 18.5237
      vertex 88.15 78.3802 17.2865
      vertex 88.15 77.3471 18.7085
    endloop
  endfacet
  facet normal 0 0.809017 -0.587785
    outer loop
      vertex 89.3 76.0455 39.5
      vertex 88.15 78.3802 42.7135
      vertex 89.3 78.3802 42.7135
    endloop
  endfacet
  facet normal 0 0.809017 -0.587785
    outer loop
      vertex 88.15 78.3802 42.7135
      vertex 89.3 76.0455 39.5
      vertex 88.15 76.0455 39.5
    endloop
  endfacet
  facet normal 0 0.669131 -0.743144
    outer loop
      vertex 88.15 78.3802 42.7135
      vertex 89.3 81.3321 45.3713
      vertex 89.3 78.3802 42.7135
    endloop
  endfacet
  facet normal 0 0.669131 -0.743144
    outer loop
      vertex 89.3 81.3321 45.3713
      vertex 88.15 78.3802 42.7135
      vertex 88.15 81.3321 45.3713
    endloop
  endfacet
  facet normal 0 0.913545 -0.406737
    outer loop
      vertex 89.3 74.4299 35.8713
      vertex 88.15 76.0455 39.5
      vertex 89.3 76.0455 39.5
    endloop
  endfacet
  facet normal 0 0.913545 -0.406737
    outer loop
      vertex 88.15 76.0455 39.5
      vertex 89.3 74.4299 35.8713
      vertex 88.15 74.4299 35.8713
    endloop
  endfacet
  facet normal 0 0.104528 -0.994522
    outer loop
      vertex 88.15 88.5497 48.5848
      vertex 89.3 92.5 49
      vertex 89.3 88.5497 48.5848
    endloop
  endfacet
  facet normal 0 0.104528 -0.994522
    outer loop
      vertex 89.3 92.5 49
      vertex 88.15 88.5497 48.5848
      vertex 88.15 92.5 49
    endloop
  endfacet
  facet normal 0 -0.5 0.866026
    outer loop
      vertex 88.15 103.668 14.6287
      vertex 89.3 100.228 12.6426
      vertex 89.3 103.668 14.6287
    endloop
  endfacet
  facet normal 0 -0.5 0.866026
    outer loop
      vertex 89.3 100.228 12.6426
      vertex 88.15 103.668 14.6287
      vertex 88.15 100.228 12.6426
    endloop
  endfacet
  facet normal 0 -0.978148 0.207912
    outer loop
      vertex 88.15 110.57 24.1287
      vertex 89.3 111.396 28.014
      vertex 88.15 111.396 28.014
    endloop
  endfacet
  facet normal 0 -0.978148 0.207912
    outer loop
      vertex 89.3 111.396 28.014
      vertex 88.15 110.57 24.1287
      vertex 89.3 110.57 24.1287
    endloop
  endfacet
  facet normal 0 -0.913544 0.40674
    outer loop
      vertex 88.15 110.57 24.1287
      vertex 89.3 109.948 22.7316
      vertex 89.3 110.57 24.1287
    endloop
  endfacet
  facet normal -1.26293e-006 -0.913544 0.406739
    outer loop
      vertex 89.3 109.948 22.7316
      vertex 88.15 110.57 24.1287
      vertex 88.15 109.855 22.523
    endloop
  endfacet
  facet normal 0 -1 0
    outer loop
      vertex 88.15 111.396 28.014
      vertex 89.3 111.396 31.986
      vertex 88.15 111.396 31.986
    endloop
  endfacet
  facet normal 0 -1 -0
    outer loop
      vertex 89.3 111.396 31.986
      vertex 88.15 111.396 28.014
      vertex 89.3 111.396 28.014
    endloop
  endfacet
  facet normal 0 -0.809017 0.587785
    outer loop
      vertex 88.15 107.653 18.7085
      vertex 89.3 108.954 20.5
      vertex 88.15 108.954 20.5
    endloop
  endfacet
  facet normal -2.7527e-007 -0.809017 0.587785
    outer loop
      vertex 89.3 108.954 20.5
      vertex 88.15 107.653 18.7085
      vertex 89.3 107.519 18.5237
    endloop
  endfacet
  facet normal 0 -0.809017 -0.587785
    outer loop
      vertex 88.15 107.921 40.922
      vertex 89.3 106.62 42.7135
      vertex 88.15 106.62 42.7135
    endloop
  endfacet
  facet normal -6.99609e-007 -0.809017 -0.587785
    outer loop
      vertex 89.3 106.62 42.7135
      vertex 88.15 107.921 40.922
      vertex 89.3 108.056 40.7372
    endloop
  endfacet
  facet normal 0 -0.978148 -0.207912
    outer loop
      vertex 88.15 111.396 31.986
      vertex 89.3 110.57 35.8713
      vertex 88.15 110.57 35.8713
    endloop
  endfacet
  facet normal 0 -0.978148 -0.207912
    outer loop
      vertex 89.3 110.57 35.8713
      vertex 88.15 111.396 31.986
      vertex 89.3 111.396 31.986
    endloop
  endfacet
  facet normal -0 -0.913545 -0.406738
    outer loop
      vertex 89.3 110.57 35.8713
      vertex 88.15 109.669 37.8943
      vertex 88.15 110.57 35.8713
    endloop
  endfacet
  facet normal 9.08693e-007 -0.913545 -0.406738
    outer loop
      vertex 88.15 109.669 37.8943
      vertex 89.3 110.57 35.8713
      vertex 89.3 109.576 38.103
    endloop
  endfacet
  facet normal 0 0.809017 0.587785
    outer loop
      vertex 89.3 76.0455 20.5
      vertex 88.15 77.3471 18.7085
      vertex 88.15 76.0455 20.5
    endloop
  endfacet
  facet normal -2.7527e-007 0.809017 0.587785
    outer loop
      vertex 88.15 77.3471 18.7085
      vertex 89.3 76.0455 20.5
      vertex 89.3 77.4814 18.5237
    endloop
  endfacet
  facet normal 0 0.104528 0.994522
    outer loop
      vertex 88.15 90.2977 11.2315
      vertex 89.3 92.5 11
      vertex 88.15 92.5 11
    endloop
  endfacet
  facet normal 8.49296e-007 0.104528 0.994522
    outer loop
      vertex 89.3 92.5 11
      vertex 88.15 90.2977 11.2315
      vertex 89.3 90.0705 11.2553
    endloop
  endfacet
  facet normal -0 0.309017 0.951056
    outer loop
      vertex 88.15 88.5497 11.4152
      vertex 89.3 84.772 12.6426
      vertex 89.3 88.5497 11.4152
    endloop
  endfacet
  facet normal 0 0.309017 0.951056
    outer loop
      vertex 89.3 84.772 12.6426
      vertex 88.15 88.5497 11.4152
      vertex 88.15 84.772 12.6426
    endloop
  endfacet
  facet normal 0 0.913546 0.406736
    outer loop
      vertex 89.3 75.0519 22.7316
      vertex 88.15 74.4299 24.1287
      vertex 89.3 74.4299 24.1287
    endloop
  endfacet
  facet normal 4.79775e-006 0.913544 0.406739
    outer loop
      vertex 88.15 74.4299 24.1287
      vertex 89.3 75.0519 22.7316
      vertex 88.15 75.1448 22.523
    endloop
  endfacet
  facet normal 0 0.978148 0.207912
    outer loop
      vertex 89.3 74.4299 24.1287
      vertex 88.15 73.6041 28.014
      vertex 89.3 73.6041 28.014
    endloop
  endfacet
  facet normal 0 0.978148 0.207912
    outer loop
      vertex 88.15 73.6041 28.014
      vertex 89.3 74.4299 24.1287
      vertex 88.15 74.4299 24.1287
    endloop
  endfacet
  facet normal 5.15199e-006 0.913545 0.406738
    outer loop
      vertex 89.3 76.0455 20.5
      vertex 88.15 75.1448 22.523
      vertex 89.3 75.0519 22.7316
    endloop
  endfacet
  facet normal 0 0.913546 0.406735
    outer loop
      vertex 88.15 75.1448 22.523
      vertex 89.3 76.0455 20.5
      vertex 88.15 76.0455 20.5
    endloop
  endfacet
  facet normal -0 0.5 0.866026
    outer loop
      vertex 88.15 84.772 12.6426
      vertex 89.3 81.3321 14.6287
      vertex 89.3 84.772 12.6426
    endloop
  endfacet
  facet normal 0 0.5 0.866026
    outer loop
      vertex 89.3 81.3321 14.6287
      vertex 88.15 84.772 12.6426
      vertex 88.15 81.3321 14.6287
    endloop
  endfacet
  facet normal 9.10046e-007 0.104528 0.994522
    outer loop
      vertex 88.15 88.5497 11.4152
      vertex 89.3 90.0705 11.2553
      vertex 88.15 90.2977 11.2315
    endloop
  endfacet
  facet normal 0 0.104529 0.994522
    outer loop
      vertex 89.3 90.0705 11.2553
      vertex 88.15 88.5497 11.4152
      vertex 89.3 88.5497 11.4152
    endloop
  endfacet
endsolid OpenSCAD_Model
